<svg width="253" height="400" viewBox="0 0 253 400" fill="none" xmlns="http://www.w3.org/2000/svg">
<path d="M89.8969 108.468H89.9825C104.004 108.342 125.14 88.5342 126.033 87.6895C126.158 87.5815 126.259 87.4505 126.329 87.3041C126.4 87.1577 126.439 86.9991 126.444 86.8378C126.449 86.6766 126.421 86.5159 126.36 86.3656C126.299 86.2153 126.207 86.0784 126.089 85.9632C125.972 85.848 125.831 85.7569 125.676 85.6953C125.521 85.6337 125.354 85.6029 125.186 85.6048C125.019 85.6067 124.853 85.6412 124.699 85.7063C124.546 85.7714 124.407 85.8657 124.293 85.9835C124.079 86.1865 102.98 105.961 89.9568 106.079H89.8998C87.7716 106.079 85.6863 105.043 83.6893 102.999C74.9342 94.0169 70.5922 69.0362 71.5593 56.4553C72.883 40.9754 77.0766 33.7347 77.1165 33.6607C77.2335 33.4629 77.2898 33.2373 77.2787 33.0101C77.2675 32.7829 77.1896 32.5633 77.0538 32.377C74.221 28.5372 75.6274 20.7123 82.8592 14.223C89.8798 7.95316 102.575 1.54615 117.033 2.48142C128.643 3.2055 139.164 8.67449 147.463 18.2959C160.457 33.4659 156.153 44.7851 151.172 57.8898C146.696 69.656 141.618 82.9884 149.018 101.022C149.143 101.311 149.381 101.542 149.681 101.664C149.982 101.786 150.319 101.79 150.623 101.675C150.926 101.56 151.17 101.335 151.302 101.049C151.435 100.762 151.445 100.438 151.331 100.144C144.276 82.9555 148.966 70.6298 153.505 58.7099C158.538 45.4928 163.293 33.0051 149.389 16.7737C140.642 6.62566 129.516 0.865973 117.207 0.0952687C102.027 -0.883882 88.5732 5.85498 81.176 12.4759C73.9556 18.946 71.2427 27.6651 74.6146 33.134C73.5192 35.2871 70.2585 42.6759 69.0974 56.2689C68.0704 69.5902 72.5492 95.0454 81.8921 104.634C84.354 107.179 87.0584 108.468 89.8969 108.468Z" fill="white"/>
<path d="M125.639 81.6308C129.756 81.6308 136.6 74.6725 140.243 69.593C143.92 64.4202 143.472 57.9365 140.916 54.6562C139.327 52.6156 137.07 51.8641 134.728 52.6019C131.824 53.4933 129.482 55.8163 128.136 59.1405C127.494 60.7313 126.778 63.4959 127.445 64.6095C127.603 64.8712 127.859 65.0656 128.16 65.1534C128.461 65.2412 128.786 65.2159 129.068 65.0827C129.351 64.9494 129.571 64.7181 129.683 64.4354C129.795 64.1526 129.792 63.8394 129.673 63.559C129.545 62.6183 130.609 56.3731 135.493 54.8783C136.814 54.4641 137.978 54.8783 138.916 56.0879C140.913 58.6413 141.198 64.0116 138.183 68.2409C133.601 74.6259 127.73 79.3708 125.562 79.2391C125.414 79.2391 125.363 79.2035 125.277 79.0472C124.059 76.5211 126.703 74.1102 126.735 74.0938C126.859 73.9882 126.959 73.8599 127.031 73.7164C127.102 73.5729 127.143 73.4172 127.151 73.2583C127.16 73.0993 127.135 72.9405 127.078 72.791C127.022 72.6415 126.935 72.5042 126.822 72.3874C126.71 72.2706 126.574 72.1766 126.424 72.1107C126.273 72.0449 126.11 72.0087 125.945 72.0041C125.779 71.9996 125.615 72.0268 125.46 72.0842C125.306 72.1416 125.165 72.2281 125.046 72.3385C124.881 72.4866 121.052 75.9671 123.026 80.0565C123.226 80.4972 123.548 80.8764 123.957 81.1523C124.366 81.4281 124.847 81.5899 125.346 81.6198C125.451 81.628 125.545 81.6308 125.639 81.6308Z" fill="white"/>
<path d="M118.696 66.288C118.982 66.2884 119.259 66.1935 119.481 66.0195C119.702 65.8455 119.854 65.6032 119.911 65.3336C120.139 64.2886 121.289 62.5908 122.401 60.9287C124.684 57.5387 127.283 53.6934 125.776 50.6326C124.804 48.6606 122.373 47.4922 118.339 47.067C108.426 46.0742 108.329 39.936 108.243 34.5219C108.218 32.8461 108.192 31.2635 107.832 30.0128C107.245 27.9092 104.315 27.6212 103.351 27.5252C96.7465 26.8587 75.7786 30.9262 74.9314 32.5444C74.8075 32.7797 74.7682 33.0479 74.8196 33.3069C74.8711 33.566 75.0104 33.8014 75.2158 33.9763C75.4211 34.1512 75.681 34.2557 75.9547 34.2736C76.2285 34.2914 76.5006 34.2215 76.7286 34.0748C79.105 33.1039 100.335 28.2273 105.005 30.32C105.291 30.4489 105.416 30.5724 105.436 30.6382C105.721 31.6036 105.721 33.0381 105.756 34.5575C105.847 40.0018 105.975 48.23 118.074 49.445C121.086 49.7687 122.975 50.5421 123.528 51.6638C124.441 53.5234 122.156 56.9162 120.316 59.6397C118.967 61.6446 117.797 63.378 117.48 64.8646C117.415 65.1744 117.479 65.4966 117.66 65.7608C117.841 66.025 118.123 66.2096 118.445 66.2743C118.528 66.2867 118.612 66.2913 118.696 66.288Z" fill="white"/>
<path d="M110.24 121.611C110.3 121.611 110.36 121.606 110.42 121.598C110.581 121.575 110.736 121.522 110.876 121.441C111.016 121.361 111.138 121.255 111.235 121.129C111.332 121.003 111.403 120.86 111.443 120.708C111.482 120.556 111.49 120.398 111.467 120.243C110.619 114.575 108.571 109.135 105.45 104.258C105.365 104.125 105.253 104.008 105.121 103.916C104.989 103.824 104.839 103.758 104.68 103.722C104.522 103.685 104.357 103.679 104.196 103.704C104.035 103.729 103.88 103.784 103.741 103.866C103.602 103.948 103.482 104.056 103.386 104.183C103.29 104.31 103.221 104.454 103.183 104.606C103.146 104.759 103.139 104.917 103.165 105.072C103.191 105.227 103.248 105.375 103.333 105.509C106.277 110.112 108.209 115.246 109.01 120.594C109.054 120.877 109.203 121.136 109.428 121.322C109.654 121.509 109.942 121.612 110.24 121.611Z" fill="white"/>
<path d="M156.629 35.9371C156.911 35.9355 157.185 35.8416 157.404 35.6707C157.624 35.4999 157.776 35.2623 157.837 34.9971C157.897 34.7319 157.862 34.4548 157.737 34.2114C157.612 33.968 157.404 33.7728 157.148 33.6579C151.235 31.0276 135.373 24.8318 115.886 24.1105C100.076 23.5263 85.3155 25.3886 74.3637 29.3217C74.1987 29.3664 74.0452 29.4435 73.9126 29.5481C73.7801 29.6526 73.6715 29.7823 73.5936 29.9291C73.5157 30.0759 73.4702 30.2367 73.46 30.4012C73.4497 30.5657 73.475 30.7305 73.5341 30.8852C73.5933 31.0399 73.6851 31.1811 73.8037 31.3001C73.9223 31.4191 74.0653 31.5132 74.2235 31.5765C74.3818 31.6399 74.552 31.6711 74.7234 31.6682C74.8948 31.6653 75.0637 31.6284 75.2195 31.5597C85.8689 27.7364 100.261 25.9426 115.777 26.4967C134.811 27.2043 150.296 33.2547 156.096 35.8219C156.262 35.8981 156.445 35.9375 156.629 35.9371Z" fill="white"/>
<path d="M152.273 23.7457C152.564 23.7451 152.847 23.6459 153.07 23.4655C153.293 23.2851 153.444 23.035 153.495 22.7589C153.545 22.4828 153.494 22.1983 153.349 21.955C153.204 21.7118 152.974 21.5253 152.701 21.4281C142.496 17.8626 129.936 15.7315 116.376 15.2652C101.051 14.5521 86.5564 16.2005 75.6303 19.8703C75.3193 19.9747 75.0642 20.1935 74.9211 20.4787C74.778 20.764 74.7586 21.0921 74.8671 21.3911C74.9757 21.6901 75.2034 21.9353 75.5 22.0729C75.7967 22.2105 76.1381 22.2292 76.449 22.1248C87.0813 18.5592 101.24 16.974 116.274 17.6514C129.59 18.1122 141.886 20.1939 151.848 23.6854C151.985 23.7292 152.129 23.7496 152.273 23.7457Z" fill="white"/>
<path d="M148.056 394.863C152.633 394.859 157.183 394.197 161.556 392.899C171.113 390.022 176.427 384.687 175.771 378.637C174.567 367.485 177.526 363.692 184.01 355.381C185.878 352.987 188.004 350.272 190.36 346.931C199.697 333.895 198.793 290.45 197.541 230.319C197.329 219.982 197.104 209.164 196.919 197.955C195.549 122.1 160.378 110.086 158.88 109.612C158.567 109.513 158.226 109.537 157.932 109.679C157.637 109.822 157.414 110.071 157.311 110.372C157.208 110.672 157.233 111 157.381 111.283C157.529 111.566 157.788 111.781 158.101 111.88C158.449 111.993 193.102 124.025 194.437 198.002C194.619 209.219 194.842 220.042 195.059 230.385C196.297 290.064 197.193 333.187 188.309 345.593C185.973 348.898 183.873 351.588 182.033 353.961C175.569 362.247 172.003 366.813 173.306 378.895C173.831 383.736 169.167 388.124 160.823 390.636C149.514 394.04 134.677 392.927 130.615 385.845C126.375 378.322 119.203 373.102 111.638 367.581C105.63 363.209 99.428 358.686 93.771 352.529C82.5111 340.382 66.1933 325.925 61.7458 322.016C64.125 320.532 69.7563 317.587 75.9269 318.176C76.0904 318.197 76.2567 318.186 76.4154 318.143C76.5742 318.099 76.7219 318.025 76.8495 317.924C76.9771 317.824 77.0818 317.699 77.1572 317.558C77.2326 317.417 77.277 317.262 77.2877 317.104C77.3038 316.948 77.2879 316.791 77.2407 316.641C77.1935 316.491 77.1161 316.351 77.0127 316.23C76.9094 316.108 76.7822 316.008 76.6385 315.934C76.4948 315.86 76.3373 315.814 76.1751 315.799C66.935 314.935 59.301 320.705 58.9815 320.955C58.8409 321.063 58.7265 321.2 58.6462 321.355C58.5659 321.51 58.5216 321.68 58.5165 321.853C58.5113 322.027 58.5454 322.199 58.6163 322.358C58.6873 322.517 58.7933 322.66 58.9272 322.776C59.1269 322.949 78.928 340.102 91.911 354.109C97.7249 360.439 104.032 365.033 110.134 369.468C117.817 375.063 124.45 379.89 128.438 386.969C131.556 392.444 139.512 394.863 148.056 394.863Z" fill="white"/>
<path d="M70.3214 317.932C70.5026 317.932 70.6817 317.894 70.8458 317.82C71.01 317.746 71.1552 317.638 71.2713 317.505C76.0012 312.096 85.4011 313.015 85.481 313.023C85.6445 313.048 85.8116 313.039 85.9716 312.999C86.1317 312.958 86.2811 312.886 86.4104 312.786C86.5398 312.687 86.6462 312.563 86.7229 312.422C86.7996 312.281 86.845 312.126 86.856 311.967C86.8912 311.652 86.795 311.337 86.5886 311.09C86.3822 310.843 86.0823 310.685 85.7549 310.65C85.3241 310.601 74.9599 309.57 69.3685 315.969C69.2634 316.088 69.1839 316.227 69.1345 316.376C69.0851 316.525 69.0667 316.683 69.0805 316.839C69.0943 316.995 69.1399 317.147 69.2148 317.286C69.2896 317.425 69.3923 317.549 69.5169 317.65C69.7423 317.832 70.027 317.932 70.3214 317.932Z" fill="white"/>
<path d="M81.7636 313.037C81.8315 313.037 81.8993 313.031 81.9662 313.02C82.2907 312.968 82.5806 312.795 82.7721 312.538C82.9636 312.281 83.0411 311.961 82.9875 311.649C82.1887 307.052 89.4519 305.256 89.5289 305.239C89.8489 305.162 90.124 304.966 90.2936 304.694C90.4632 304.422 90.5134 304.096 90.4332 303.788C90.353 303.48 90.149 303.216 89.8659 303.053C89.5829 302.89 89.2441 302.842 88.9241 302.919C85.612 303.714 79.5955 306.643 80.5369 312.041C80.5861 312.32 80.7363 312.572 80.9609 312.755C81.1854 312.937 81.4698 313.037 81.7636 313.037Z" fill="white"/>
<path d="M85.7404 305.985C86.0528 305.985 86.3538 305.873 86.5837 305.669C86.8137 305.466 86.9556 305.187 86.9814 304.888C87.1183 303.083 88.3393 302.304 90.8555 300.848C91.5801 300.428 92.356 299.981 93.1577 299.457C95.1546 298.146 95.6652 296.503 96.1046 295.069C96.5439 293.635 96.9376 292.326 98.8603 291.117C101.847 289.315 101.305 284.973 100.678 279.948C100.198 276.144 99.662 271.833 100.732 268.484C103.217 260.45 98.8432 252.269 98.6549 251.923C98.5858 251.775 98.486 251.642 98.3615 251.532C98.237 251.423 98.0905 251.338 97.931 251.285C97.7715 251.231 97.6023 251.21 97.4338 251.222C97.2653 251.233 97.1011 251.278 96.9512 251.352C96.8012 251.427 96.6687 251.531 96.5618 251.656C96.4549 251.782 96.3758 251.928 96.3294 252.084C96.283 252.24 96.2703 252.404 96.2919 252.565C96.3136 252.726 96.3693 252.881 96.4555 253.02C96.4926 253.097 100.541 260.7 98.3582 267.782C97.1287 271.605 97.705 276.185 98.2071 280.225C98.7092 284.266 99.1941 288.086 97.5167 289.098C94.8094 290.804 94.2075 292.793 93.7225 294.389C93.3203 295.705 93.0293 296.657 91.7598 297.488C91.0009 297.982 90.2621 298.407 89.5746 298.805C87.0898 300.242 84.7249 301.6 84.4995 304.718C84.4759 305.033 84.5825 305.344 84.7963 305.583C85.01 305.822 85.3135 305.971 85.6406 305.996L85.7404 305.985Z" fill="white"/>
<path d="M94.9093 252.055C103.753 252.055 110.714 245.267 130.988 220.936C156.284 190.47 169.566 163.493 169.698 163.224C169.831 162.938 169.843 162.613 169.73 162.319C169.616 162.025 169.388 161.785 169.092 161.651C168.797 161.518 168.459 161.501 168.151 161.605C167.844 161.709 167.591 161.925 167.447 162.206C167.318 162.481 154.147 189.214 129.048 219.444C103.964 249.548 99.9786 251.474 88.9127 248.791C77.2848 245.996 47.402 223.832 42.0845 218.97C40.9395 217.964 39.7407 217.016 38.4929 216.131C35.4347 213.901 34.2907 213.067 34.8755 207.771C35.5973 200.127 39.7253 190.026 39.7709 189.927C39.882 189.635 39.8701 189.312 39.7378 189.028C39.6054 188.744 39.363 188.52 39.0621 188.405C38.7612 188.29 38.4255 188.293 38.1263 188.412C37.8272 188.531 37.5882 188.758 37.4601 189.044C37.2861 189.472 33.1553 199.573 32.4022 207.538C31.7033 213.863 33.4948 215.492 36.9894 218.034C38.1688 218.868 39.301 219.762 40.3814 220.711C45.9643 225.824 76.0667 248.166 88.308 251.109C90.7271 251.693 92.8638 252.055 94.9093 252.055Z" fill="white"/>
<path d="M36.7412 216.367C36.9496 216.367 37.1548 216.317 37.3377 216.221C37.5207 216.125 37.6757 215.987 37.7882 215.818C44.5949 205.654 47.6759 173.281 47.8043 171.907C47.8196 171.751 47.8026 171.594 47.7543 171.444C47.706 171.294 47.6274 171.154 47.523 171.034C47.4185 170.913 47.2903 170.814 47.1456 170.741C47.001 170.668 46.8429 170.624 46.6803 170.61C46.5151 170.588 46.3468 170.599 46.1865 170.643C46.0261 170.688 45.8774 170.764 45.75 170.868C45.6226 170.972 45.5194 171.1 45.4471 171.244C45.3749 171.389 45.3353 171.547 45.3309 171.707C45.3024 172.036 42.1701 204.864 35.6971 214.543C35.52 214.809 35.4596 215.131 35.5291 215.439C35.5986 215.748 35.7924 216.017 36.068 216.189C36.2697 216.309 36.5036 216.371 36.7412 216.367Z" fill="white"/>
<path d="M33.5091 212.664C33.7412 212.665 33.9686 212.602 34.1652 212.483C34.4442 212.315 34.643 212.048 34.7183 211.74C34.7936 211.432 34.7394 211.107 34.5674 210.838C28.7706 201.869 31.2354 183.49 31.2611 183.306C31.2879 183.148 31.2815 182.987 31.2422 182.831C31.2029 182.676 31.1316 182.529 31.0324 182.401C30.9333 182.272 30.8083 182.164 30.6649 182.083C30.5215 182.002 30.3626 181.949 30.1976 181.928C30.0327 181.907 29.865 181.918 29.7045 181.96C29.544 182.002 29.3939 182.075 29.2632 182.174C29.1326 182.274 29.0239 182.397 28.9437 182.537C28.8635 182.677 28.8134 182.832 28.7963 182.991C28.6907 183.778 26.1946 202.406 32.4507 212.096C32.5629 212.269 32.7188 212.412 32.9039 212.511C33.0889 212.61 33.2971 212.663 33.5091 212.664Z" fill="white"/>
<path d="M92.8297 211.241C92.911 211.24 92.9921 211.232 93.0722 211.219C93.3944 211.157 93.678 210.975 93.8614 210.713C94.0447 210.451 94.1128 210.13 94.0507 209.82C93.9679 209.425 91.9425 200.037 79.2163 191.734C66.6641 183.49 47.2652 170.824 47.2652 170.824L45.8673 172.799C45.8673 172.799 65.2662 185.465 77.8184 193.709C89.6232 201.422 91.583 210.19 91.6002 210.278C91.6571 210.551 91.8109 210.796 92.0352 210.971C92.2595 211.147 92.5404 211.242 92.8297 211.241Z" fill="white"/>
<path d="M89.8456 204.779C90.1706 204.778 90.4824 204.655 90.7143 204.436C90.9463 204.218 91.0799 203.92 91.0866 203.608C91.3148 192.785 102.729 164.697 113.338 143.762C117.601 135.44 124.51 128.64 133.062 124.346C133.218 124.28 133.357 124.184 133.472 124.064C133.588 123.944 133.676 123.803 133.733 123.649C133.789 123.495 133.812 123.332 133.8 123.169C133.788 123.006 133.742 122.848 133.664 122.703C133.586 122.558 133.478 122.43 133.347 122.326C133.215 122.223 133.063 122.147 132.9 122.102C132.737 122.057 132.565 122.045 132.397 122.067C132.229 122.088 132.067 122.142 131.921 122.226C122.903 126.757 115.618 133.929 111.119 142.703C102.212 160.256 88.8671 190.947 88.6047 203.558C88.6005 203.715 88.6287 203.872 88.6876 204.018C88.7466 204.165 88.835 204.298 88.948 204.412C89.061 204.525 89.1962 204.616 89.3458 204.679C89.4955 204.742 89.6566 204.776 89.82 204.779H89.8456Z" fill="white"/>
<path d="M79.3988 194.381C79.5994 194.381 79.7971 194.335 79.9749 194.245C80.1527 194.156 80.3055 194.027 80.42 193.868C87.3209 184.329 92.3389 173.652 97.1944 163.323C100.96 155.317 104.848 147.036 109.567 139.428C109.65 139.293 109.705 139.144 109.729 138.989C109.752 138.834 109.743 138.676 109.703 138.524C109.663 138.372 109.592 138.229 109.495 138.104C109.397 137.978 109.275 137.872 109.135 137.792C108.995 137.712 108.839 137.659 108.678 137.637C108.517 137.614 108.352 137.622 108.194 137.661C108.036 137.7 107.888 137.768 107.757 137.862C107.626 137.955 107.516 138.073 107.433 138.208C102.643 145.928 98.7206 154.272 94.9292 162.343C90.1223 172.574 85.1499 183.15 78.3832 192.513C78.2896 192.642 78.2233 192.787 78.1883 192.94C78.1532 193.094 78.1501 193.252 78.179 193.407C78.2079 193.561 78.2683 193.709 78.3567 193.841C78.4451 193.973 78.5598 194.086 78.6941 194.175C78.9015 194.312 79.1475 194.384 79.3988 194.381Z" fill="white"/>
<path d="M45.8215 174.784C45.997 174.785 46.1706 174.749 46.3307 174.68C46.4907 174.61 46.6337 174.509 46.7502 174.383C46.8667 174.257 46.954 174.108 47.0063 173.947C47.0587 173.786 47.0749 173.616 47.0539 173.449C47.0539 173.336 45.6903 162.319 45.4478 157.047C45.2966 153.756 43.9159 150.02 42.6949 146.726C41.8162 144.362 40.9832 142.127 40.8406 140.618C40.6808 138.227 39.4142 137.681 38.6924 137.571C36.7497 137.319 34.7385 139.406 33.8427 141.611C32.6303 144.708 33.1181 150.503 33.1409 150.747C33.1693 151.062 33.3256 151.354 33.576 151.56C33.8263 151.765 34.1507 151.867 34.4789 151.844C34.6422 151.833 34.8014 151.79 34.9474 151.719C35.0934 151.647 35.2232 151.549 35.3293 151.429C35.4355 151.309 35.5158 151.17 35.5657 151.02C35.6156 150.87 35.6341 150.712 35.62 150.555C35.4945 149.03 35.3347 144.612 36.1734 142.47C36.744 141.098 37.7853 140.117 38.256 139.96C38.256 140.051 38.333 140.306 38.3672 140.81C38.547 142.651 39.3885 144.924 40.3642 147.536C41.5224 150.67 42.8403 154.222 42.9716 157.16C43.2198 162.516 44.5378 173.279 44.5977 173.737C44.6344 174.025 44.7789 174.29 45.0041 174.482C45.2294 174.675 45.5199 174.783 45.8215 174.784Z" fill="white"/>
<path d="M42.5838 193.413C42.7733 193.414 42.9605 193.373 43.1308 193.293C43.3011 193.213 43.4497 193.097 43.5652 192.952C43.6655 192.829 43.7395 192.687 43.7829 192.536C43.8264 192.385 43.8383 192.227 43.8182 192.071C43.7981 191.915 43.7462 191.765 43.6656 191.629C43.585 191.492 43.4772 191.373 43.3484 191.276C43.1087 191.095 19.2909 173.248 13.7337 166.167C8.23643 159.165 2.92172 132.335 2.5423 125.714C2.25703 121.96 3.50939 120.1 3.92875 120.051C4.09706 120.051 4.95006 120.687 5.69749 123.342C7.20375 128.962 19.3908 156.414 24.3831 157.077C24.688 157.125 25.0006 157.093 25.2879 156.984C25.5752 156.875 25.8264 156.693 26.0149 156.458C27.2616 154.889 25.7895 150.873 20.4121 138.789C18.5977 134.716 16.5466 130.103 16.4724 129.041C16.3612 128.049 16.7577 127.223 17.3853 127.031C18.0129 126.839 19.3366 127.352 20.6032 129.579C21.4591 131.044 22.4233 133.46 23.5416 136.26C26.2859 143.117 30.0373 152.478 36.0139 157.955C43.6394 165.174 44.6949 177.489 44.7063 177.612C44.7131 177.77 44.7537 177.925 44.8255 178.068C44.8974 178.21 44.999 178.337 45.124 178.44C45.249 178.543 45.3947 178.62 45.5521 178.666C45.7094 178.712 45.875 178.727 46.0385 178.709C46.3667 178.684 46.6711 178.535 46.885 178.294C47.0989 178.054 47.2048 177.741 47.1796 177.426C47.1397 176.877 46.0385 164.104 37.7341 156.235C32.1512 151.112 28.5139 142.028 25.858 135.391C24.6998 132.505 23.7042 130.012 22.7742 128.413C20.2923 124.025 17.4509 124.488 16.6322 124.738C14.8406 125.287 13.7537 127.13 13.9876 129.242C14.0846 130.594 15.5481 133.934 18.1213 139.719C20.0868 144.137 23.1793 151.085 23.8268 154.022C19.987 149.993 10.0223 129.933 8.08525 122.722C6.72734 117.898 4.60771 117.511 3.50083 117.684C1.16726 118.062 -0.28194 121.499 0.0461273 125.857C0.445515 132.837 5.86293 160.119 11.7425 167.596C17.4994 174.93 40.8408 192.409 41.8193 193.15C42.035 193.32 42.305 193.413 42.5838 193.413Z" fill="white"/>
<path d="M112.231 144.434C112.458 144.433 112.681 144.373 112.875 144.26C113.069 144.146 113.227 143.984 113.332 143.79C113.437 143.597 113.484 143.379 113.47 143.162C113.456 142.944 113.379 142.734 113.25 142.555L101.496 126.348L152.698 100.841L156.449 111.131C156.562 111.428 156.791 111.67 157.086 111.806C157.382 111.943 157.721 111.964 158.033 111.864C158.343 111.759 158.598 111.539 158.741 111.254C158.884 110.969 158.903 110.641 158.794 110.342L154.569 98.7481C154.511 98.5865 154.416 98.4389 154.293 98.3154C154.169 98.1919 154.02 98.0953 153.854 98.0324C153.689 97.9694 153.511 97.9415 153.333 97.9504C153.155 97.9594 152.981 98.0051 152.823 98.0843L99.0943 124.845C98.9369 124.922 98.7988 125.032 98.6895 125.165C98.5802 125.299 98.5022 125.453 98.461 125.619C98.4182 125.784 98.4127 125.956 98.4446 126.123C98.4766 126.291 98.5454 126.45 98.6464 126.589L111.213 143.912C111.326 144.072 111.477 144.204 111.655 144.294C111.832 144.385 112.03 144.433 112.231 144.434Z" fill="white"/>
<path d="M201.397 363.821C201.444 363.824 201.491 363.824 201.537 363.821C201.865 363.785 202.164 363.626 202.37 363.378C202.575 363.13 202.67 362.814 202.633 362.499C202.578 362.06 197.418 318.673 197.54 314.03C197.545 313.873 197.518 313.716 197.46 313.569C197.402 313.423 197.314 313.288 197.201 313.174C197.089 313.06 196.954 312.969 196.805 312.905C196.655 312.842 196.494 312.807 196.331 312.804C195.686 312.721 195.076 313.308 195.059 313.966C194.933 318.777 199.948 360.974 200.162 362.768C200.199 363.058 200.345 363.325 200.572 363.519C200.8 363.713 201.093 363.82 201.397 363.821Z" fill="white"/>
<path d="M247.39 400C249.387 400 251.153 399.726 251.983 398.988C252.337 398.69 252.599 398.303 252.739 397.871C252.879 397.439 252.892 396.978 252.776 396.539C252.291 394.268 248.905 391.522 246.417 390.763C245.038 390.333 243.625 390.009 242.192 389.794C242.154 388.83 241.874 387.889 241.376 387.052C239.465 383.727 234.51 381.226 226.653 379.613C215.402 377.249 209.554 370.318 205.277 365.255C203.223 362.822 201.449 360.722 199.526 359.671C193.49 356.38 188.62 360.349 185.396 362.982L185.051 363.256C182.367 365.431 177.186 363.994 177.129 363.977C176.813 363.887 176.472 363.921 176.182 364.072C175.892 364.224 175.677 364.479 175.583 364.784C175.489 365.088 175.525 365.415 175.682 365.694C175.839 365.973 176.105 366.18 176.422 366.27C176.681 366.344 182.957 368.091 186.654 365.08L187.008 364.805C190.172 362.216 193.766 359.268 198.297 361.753C199.811 362.576 201.452 364.52 203.346 366.767C207.853 372.101 214.021 379.405 226.128 381.953C234.881 383.749 238.039 386.295 239.146 388.113C239.939 389.424 239.662 390.376 239.642 390.439C239.61 390.528 239.59 390.62 239.582 390.713C239.566 390.869 239.582 391.027 239.629 391.177C239.677 391.327 239.754 391.467 239.858 391.588C239.962 391.71 240.089 391.81 240.233 391.884C240.377 391.958 240.535 392.004 240.697 392.019C242.379 392.202 244.038 392.544 245.65 393.042C247.262 393.535 249.498 395.299 250.18 396.607C250.294 396.782 250.354 396.983 250.354 397.189C249.153 398.184 241.16 397.235 239.824 396.607C239.546 396.444 239.211 396.393 238.894 396.466C238.576 396.539 238.302 396.73 238.13 396.997C237.962 397.268 237.91 397.592 237.987 397.9C238.064 398.207 238.263 398.474 238.541 398.642C239.3 399.117 243.721 400 247.39 400Z" fill="white"/>
<path d="M239.203 398.843C239.412 398.845 239.619 398.795 239.803 398.699C239.987 398.603 240.143 398.464 240.255 398.294C240.429 398.025 240.485 397.701 240.411 397.392C240.337 397.084 240.138 396.816 239.859 396.648C234.744 393.587 226.24 392.754 216.392 391.794C201.386 390.324 184.375 388.664 175.483 378.497C175.271 378.255 174.967 378.104 174.639 378.077C174.311 378.05 173.985 378.149 173.733 378.353C173.481 378.557 173.324 378.849 173.295 379.165C173.267 379.48 173.371 379.793 173.583 380.036C183.123 390.943 200.664 392.652 216.141 394.169C225.27 395.063 233.922 395.908 238.544 398.678C238.743 398.79 238.971 398.847 239.203 398.843Z" fill="white"/>
<path d="M46.7345 394.221C56.4025 394.221 68.3927 393.124 79.4301 392.104C90.0053 391.136 99.1456 390.302 103.53 390.699C115.058 391.895 132.409 390.834 132.58 390.823C132.902 390.802 133.203 390.662 133.419 390.432C133.635 390.202 133.75 389.9 133.739 389.59C133.728 389.28 133.593 388.986 133.361 388.771C133.13 388.555 132.82 388.434 132.497 388.434H132.417C132.241 388.448 115.113 389.487 103.781 388.319C99.1199 387.888 89.8912 388.741 79.1905 389.72C63.215 391.19 43.3169 393.025 34.1966 390.743C30.6308 389.835 27.2969 388.233 24.4016 386.035C21.5064 383.838 19.1115 381.092 17.3652 377.968C14.2272 372.307 13.5511 365.853 15.5452 360.264C19.8243 347.891 61.2522 322.304 61.6687 322.046C61.9299 321.869 62.1099 321.602 62.1713 321.3C62.2328 320.998 62.171 320.685 61.9988 320.426C61.8266 320.167 61.5573 319.982 61.2467 319.909C60.936 319.835 60.6081 319.88 60.3308 320.033C58.5963 321.103 17.7503 346.339 13.1916 359.498C10.975 365.702 11.6996 372.85 15.1886 379.095C17.096 382.51 19.7134 385.512 22.8783 387.913C26.0432 390.315 29.6879 392.065 33.5861 393.055C36.9267 393.906 41.4882 394.221 46.7345 394.221Z" fill="white"/>
<path d="M32.5163 364.893C32.741 364.894 32.9617 364.836 33.1546 364.725C33.3476 364.615 33.5056 364.456 33.6118 364.265C33.6574 364.18 38.9721 355.305 58.0458 354.737C70.4011 354.35 82.7666 355.104 94.9721 356.989C95.2963 357.045 95.6305 356.975 95.9012 356.795C96.1719 356.614 96.3569 356.338 96.4156 356.026C96.4742 355.714 96.4017 355.393 96.2139 355.133C96.0261 354.872 95.7384 354.695 95.4142 354.638C83.0361 352.712 70.4925 351.945 57.9602 352.351C37.3432 352.96 31.6548 362.718 31.4294 363.132C31.3518 363.27 31.3034 363.422 31.2868 363.578C31.2702 363.734 31.2858 363.892 31.3327 364.042C31.3796 364.193 31.4568 364.332 31.5601 364.454C31.6633 364.576 31.7905 364.676 31.9343 364.751C32.1129 364.844 32.313 364.893 32.5163 364.893Z" fill="white"/>
<path d="M148.048 325.977C149.848 325.977 151.397 325.288 152.65 323.667C160.438 313.887 146.533 213.731 144.927 202.343C144.905 202.188 144.851 202.038 144.769 201.902C144.686 201.767 144.577 201.648 144.447 201.553C144.317 201.458 144.169 201.388 144.011 201.349C143.853 201.309 143.688 201.299 143.526 201.32C143.365 201.342 143.209 201.393 143.068 201.472C142.926 201.552 142.803 201.657 142.704 201.782C142.605 201.907 142.533 202.049 142.492 202.201C142.45 202.353 142.44 202.511 142.462 202.667C148.738 246.995 156.09 315.415 150.667 322.228C148.057 325.587 142.645 322.247 133.265 316.045C122.307 308.786 107.193 298.936 89.5576 299.172C89.2317 299.181 88.9223 299.312 88.6961 299.538C88.4699 299.764 88.3449 300.066 88.348 300.379C88.3491 300.537 88.3829 300.692 88.4475 300.837C88.5121 300.982 88.6062 301.113 88.7242 301.222C88.8422 301.332 88.9818 301.417 89.1347 301.474C89.2877 301.531 89.4508 301.558 89.6146 301.553C106.426 301.227 121.183 310.928 131.861 318.009C138.354 322.321 143.886 325.977 148.048 325.977Z" fill="white"/>
<path d="M153.979 332.743C156.353 332.775 158.691 332.182 160.74 331.029C177.001 321.885 182.264 286.048 182.484 284.515C182.528 284.201 182.44 283.884 182.241 283.632C182.041 283.38 181.746 283.214 181.42 283.171C181.257 283.146 181.091 283.153 180.932 283.191C180.772 283.229 180.622 283.298 180.491 283.393C180.36 283.489 180.25 283.608 180.169 283.746C180.087 283.883 180.035 284.034 180.016 284.191C179.968 284.554 174.69 320.395 159.476 328.969C151.745 333.357 139.695 326.155 126.954 318.519C115.258 311.512 101.984 303.569 89.2979 302.886C88.6703 302.784 88.0256 303.352 87.9885 304.01C87.9792 304.167 88.0022 304.324 88.0561 304.473C88.1101 304.621 88.1939 304.758 88.3028 304.875C88.4116 304.992 88.5435 305.087 88.6908 305.156C88.838 305.224 88.9978 305.263 89.161 305.272C101.2 305.925 114.183 313.698 125.634 320.554C136.38 326.983 146 332.743 153.979 332.743Z" fill="white"/>
<path d="M155.913 351.942C159.179 351.942 162.3 350.979 165.23 349.065C179.149 339.97 184.372 312.381 184.589 311.215C184.624 311.059 184.625 310.897 184.593 310.739C184.562 310.582 184.497 310.432 184.404 310.299C184.311 310.166 184.191 310.053 184.051 309.965C183.911 309.878 183.755 309.818 183.591 309.79C183.426 309.762 183.258 309.766 183.096 309.801C182.933 309.837 182.78 309.904 182.644 309.998C182.509 310.091 182.395 310.21 182.308 310.348C182.222 310.485 182.165 310.637 182.141 310.796C182.09 311.07 176.884 338.566 163.832 347.09C160.472 349.284 156.843 350.019 153.02 349.268C143.506 347.348 134.763 339.943 125.534 332.112C113.216 321.671 100.481 310.873 83.6523 310.527H83.6266C83.2967 310.524 82.979 310.647 82.7433 310.869C82.5077 311.09 82.3733 311.393 82.3699 311.71C82.3665 312.028 82.4943 312.333 82.7251 312.56C82.956 312.786 83.271 312.915 83.6009 312.919C99.5222 313.242 111.906 323.747 123.891 333.903C133.385 341.953 142.354 349.559 152.518 351.607C153.635 351.828 154.773 351.941 155.913 351.942Z" fill="white"/>
<path d="M158.712 359.6C160.27 359.613 161.828 359.543 163.379 359.391C163.706 359.35 164.003 359.185 164.204 358.933C164.405 358.681 164.494 358.362 164.451 358.047C164.433 357.891 164.381 357.739 164.3 357.602C164.219 357.465 164.111 357.345 163.98 357.249C163.85 357.153 163.702 357.083 163.543 357.044C163.384 357.004 163.219 356.996 163.056 357.019C162.771 357.06 134.263 360.36 111.493 338.368C87.7975 315.357 61.0356 319.819 60.7646 319.877C60.6043 319.905 60.4514 319.964 60.3147 320.049C60.178 320.134 60.0601 320.245 59.9678 320.374C59.8756 320.503 59.8108 320.649 59.7772 320.802C59.7435 320.955 59.7417 321.114 59.7718 321.268C59.7988 321.423 59.8581 321.572 59.946 321.705C60.0339 321.838 60.1488 321.952 60.2837 322.042C60.4186 322.131 60.5708 322.194 60.7313 322.226C60.8919 322.258 61.0574 322.258 61.2182 322.227C61.4835 322.181 87.0044 317.984 109.715 340.055C127.802 357.499 149.383 359.6 158.712 359.6Z" fill="white"/>
<path d="M101.533 390.464C101.808 390.463 102.076 390.376 102.295 390.217C111.535 383.36 106.92 365.137 106.72 364.367C106.633 364.066 106.428 363.811 106.148 363.654C105.869 363.497 105.536 363.451 105.222 363.526C104.907 363.601 104.636 363.791 104.465 364.055C104.294 364.32 104.237 364.638 104.306 364.943C104.355 365.118 108.734 382.427 100.775 388.321C100.569 388.474 100.419 388.684 100.344 388.923C100.269 389.162 100.274 389.417 100.358 389.653C100.441 389.889 100.6 390.094 100.81 390.24C101.021 390.385 101.274 390.463 101.533 390.464Z" fill="white"/>
<path d="M84.4996 383.179C84.6814 383.18 84.8612 383.142 85.026 383.068C85.1907 382.994 85.3364 382.886 85.4524 382.751C95.691 371.02 82.4313 354.907 81.8608 354.227C81.7611 354.097 81.6352 353.988 81.4907 353.907C81.3463 353.825 81.1862 353.773 81.02 353.752C80.8538 353.731 80.685 353.743 80.5238 353.787C80.3625 353.831 80.2121 353.905 80.0815 354.006C79.9509 354.107 79.8429 354.232 79.7639 354.374C79.685 354.516 79.6367 354.672 79.6219 354.833C79.6072 354.993 79.6263 355.155 79.6782 355.308C79.7301 355.461 79.8136 355.603 79.9237 355.724C80.0521 355.875 92.4759 370.99 83.5496 381.212C83.399 381.387 83.303 381.599 83.2727 381.824C83.2425 382.049 83.2792 382.277 83.3787 382.483C83.4782 382.689 83.6363 382.863 83.8347 382.986C84.0331 383.108 84.2637 383.174 84.4996 383.176V383.179Z" fill="white"/>
<path d="M237.208 397.874C237.494 397.876 237.771 397.783 237.993 397.611C238.216 397.439 238.37 397.199 238.43 396.931C238.49 396.663 238.453 396.383 238.324 396.138C238.195 395.894 237.982 395.699 237.722 395.587C235.759 394.742 232.553 393.637 228.496 392.241C212.726 386.813 183.374 376.712 185.211 365.927C185.264 365.614 185.186 365.293 184.993 365.036C184.801 364.778 184.51 364.604 184.184 364.553C183.858 364.502 183.525 364.577 183.257 364.762C182.989 364.947 182.808 365.227 182.755 365.54C180.584 378.291 210.05 388.434 227.657 394.49C231.666 395.861 234.829 396.958 236.698 397.781C236.86 397.845 237.033 397.877 237.208 397.874Z" fill="white"/>
<path d="M106.509 228.437C106.81 228.437 107.101 228.332 107.328 228.141C107.555 227.949 107.702 227.685 107.741 227.398C110.172 209.686 92.6898 197.28 91.9424 196.762C91.8103 196.67 91.6607 196.604 91.502 196.567C91.3434 196.531 91.1789 196.525 91.0178 196.549C90.8568 196.574 90.7023 196.629 90.5634 196.711C90.4244 196.793 90.3036 196.901 90.2079 197.028C90.1122 197.155 90.0434 197.299 90.0055 197.451C89.9676 197.604 89.9613 197.762 89.987 197.917C90.0127 198.072 90.0699 198.22 90.1553 198.354C90.2406 198.487 90.3525 198.603 90.4846 198.695C90.6558 198.813 107.51 210.799 105.273 227.085C105.231 227.4 105.32 227.718 105.521 227.97C105.722 228.222 106.019 228.387 106.346 228.429C106.4 228.435 106.454 228.437 106.509 228.437Z" fill="white"/>
<path d="M110.985 213.021C111.173 213.021 111.358 212.98 111.527 212.9C111.673 212.831 111.804 212.735 111.912 212.618C112.02 212.5 112.103 212.364 112.156 212.215C112.209 212.067 112.231 211.91 112.221 211.754C112.211 211.598 112.169 211.445 112.097 211.304C105.947 199.118 92.3418 195.635 91.7627 195.492C91.448 195.426 91.1187 195.479 90.8442 195.641C90.5698 195.804 90.3715 196.062 90.2913 196.362C90.2111 196.662 90.2551 196.98 90.4141 197.25C90.573 197.519 90.8346 197.719 91.1437 197.807C91.2777 197.84 104.224 201.178 109.864 212.343C109.965 212.547 110.124 212.718 110.322 212.838C110.52 212.958 110.75 213.021 110.985 213.021Z" fill="white"/>
<path d="M85.1186 225.091C85.3832 225.091 85.641 225.01 85.8544 224.86C86.0678 224.71 86.2258 224.498 86.3053 224.255C89.4576 214.568 87.9171 199.897 87.8487 199.277C87.8062 198.968 87.6403 198.688 87.386 198.495C87.1318 198.302 86.8093 198.212 86.4872 198.244C86.165 198.276 85.8687 198.428 85.661 198.667C85.4534 198.906 85.3509 199.213 85.3753 199.524C85.3924 199.672 86.9272 214.334 83.9489 223.539C83.8998 223.689 83.882 223.846 83.8963 224.002C83.9106 224.159 83.9568 224.311 84.0323 224.45C84.1079 224.589 84.2112 224.712 84.3364 224.813C84.4616 224.914 84.6062 224.99 84.762 225.037C84.8773 225.072 84.9975 225.091 85.1186 225.091Z" fill="white"/>
<path d="M100.29 230.824C100.617 230.824 100.932 230.7 101.165 230.478C101.398 230.256 101.529 229.954 101.531 229.639C101.662 215.876 92.1164 198.158 91.6913 197.412C91.5263 197.156 91.2668 196.969 90.9646 196.888C90.6624 196.808 90.3398 196.841 90.0614 196.979C89.7831 197.118 89.5695 197.353 89.4633 197.636C89.3572 197.92 89.3663 198.232 89.489 198.509C89.5888 198.687 99.1713 216.446 99.0486 229.609C99.0464 229.765 99.0764 229.921 99.1369 230.066C99.1974 230.212 99.2873 230.344 99.4013 230.456C99.5153 230.568 99.6512 230.657 99.8012 230.718C99.9512 230.78 100.112 230.812 100.275 230.813L100.29 230.824Z" fill="white"/>
<path d="M132.497 124.48C132.706 124.482 132.912 124.431 133.094 124.332C145.343 117.859 158.74 112.127 158.871 112.069C159.174 111.941 159.411 111.703 159.531 111.407C159.651 111.111 159.643 110.781 159.51 110.49C159.377 110.199 159.129 109.971 158.821 109.855C158.513 109.74 158.17 109.747 157.867 109.875C157.73 109.933 144.239 115.709 131.907 122.218C131.665 122.345 131.475 122.547 131.365 122.79C131.256 123.033 131.233 123.304 131.301 123.561C131.37 123.818 131.525 124.046 131.742 124.209C131.96 124.372 132.227 124.46 132.503 124.461L132.497 124.48Z" fill="white"/>
<path d="M121.306 231.537C121.546 231.54 121.781 231.476 121.984 231.353C122.186 231.229 122.347 231.052 122.447 230.843C129.057 217.129 133.288 198.479 134.999 175.462C135.021 175.148 134.914 174.837 134.701 174.598C134.487 174.359 134.185 174.21 133.858 174.184C133.695 174.168 133.531 174.184 133.374 174.231C133.218 174.279 133.073 174.356 132.949 174.458C132.825 174.561 132.723 174.687 132.651 174.828C132.579 174.97 132.537 175.124 132.529 175.281C130.817 198.021 126.684 216.372 120.205 229.831C120.117 230.014 120.078 230.215 120.093 230.417C120.108 230.618 120.175 230.812 120.289 230.982C120.403 231.151 120.56 231.29 120.744 231.386C120.929 231.481 121.136 231.531 121.346 231.529L121.306 231.537Z" fill="white"/>
<path d="M143.07 204.537C143.332 204.538 143.588 204.459 143.8 204.311C144.012 204.163 144.17 203.954 144.251 203.715C156.295 167.823 146.248 132.283 146.134 131.93C146.044 131.626 145.832 131.369 145.546 131.214C145.259 131.06 144.92 131.021 144.604 131.105C144.287 131.19 144.019 131.392 143.856 131.667C143.694 131.941 143.651 132.266 143.737 132.571C143.84 132.92 153.694 167.793 141.889 202.98C141.829 203.159 141.813 203.349 141.844 203.535C141.875 203.721 141.951 203.898 142.066 204.05C142.181 204.202 142.332 204.326 142.507 204.412C142.681 204.498 142.874 204.543 143.07 204.543V204.537Z" fill="white"/>
<path fill-rule="evenodd" clip-rule="evenodd" d="M149.166 25.6602C148.982 25.6459 148.797 25.6847 148.636 25.7715C148.474 25.8584 148.343 25.9895 148.259 26.1481C148.176 26.3067 148.143 26.4857 148.165 26.6623C148.187 26.8388 148.264 27.005 148.385 27.1398C148.505 27.2745 148.665 27.3716 148.844 27.4188C149.022 27.4661 149.211 27.4612 149.386 27.405C149.562 27.3487 149.716 27.2434 149.829 27.1027C149.942 26.962 150.009 26.7921 150.022 26.6146C150.031 26.3811 149.947 26.1531 149.789 25.9761C149.63 25.7991 149.408 25.6863 149.166 25.6602Z" fill="#00A3D3"/>
<path d="M149.041 28.647C149.617 28.6617 150.176 28.456 150.595 28.075C151.013 27.694 151.258 27.1687 151.274 26.6146C151.286 26.2015 151.17 25.7943 150.941 25.4445C150.712 25.0948 150.38 24.8181 149.988 24.6496C149.595 24.481 149.16 24.4281 148.736 24.4976C148.312 24.5671 147.919 24.7558 147.607 25.0398C147.295 25.3239 147.077 25.6906 146.982 26.0936C146.886 26.4965 146.917 26.9177 147.071 27.3038C147.224 27.6898 147.493 28.0235 147.844 28.2626C148.194 28.5017 148.611 28.6354 149.041 28.647Z" fill="white"/>
<path fill-rule="evenodd" clip-rule="evenodd" d="M140.708 23.1505C140.585 23.1428 140.463 23.1583 140.347 23.1961C140.23 23.234 140.123 23.2935 140.031 23.3711C139.939 23.4488 139.864 23.5432 139.809 23.6489C139.755 23.7545 139.723 23.8695 139.715 23.9871C139.707 24.1047 139.723 24.2226 139.762 24.3342C139.802 24.4458 139.864 24.5489 139.944 24.6376C140.025 24.7262 140.123 24.7986 140.233 24.8508C140.343 24.903 140.463 24.9338 140.585 24.9415C140.716 24.9434 140.846 24.92 140.968 24.8727C141.09 24.8255 141.2 24.7553 141.293 24.6664C141.386 24.5775 141.46 24.4716 141.51 24.3549C141.56 24.2383 141.585 24.1132 141.583 23.9871C141.584 23.8774 141.561 23.7688 141.516 23.6677C141.472 23.5666 141.407 23.475 141.326 23.3984C141.244 23.3217 141.148 23.2615 141.041 23.2213C140.935 23.1811 140.822 23.1617 140.708 23.1643V23.1505Z" fill="#00A3D3"/>
<path d="M140.585 26.1374C140.88 26.1411 141.173 26.088 141.446 25.9813C141.719 25.8746 141.967 25.7164 142.176 25.516C142.385 25.3156 142.55 25.0771 142.661 24.8146C142.772 24.552 142.828 24.2707 142.824 23.9871C142.827 23.7192 142.775 23.4534 142.669 23.2053C142.564 22.9572 142.408 22.7318 142.211 22.5425C142.014 22.3531 141.779 22.2036 141.521 22.1027C141.263 22.0018 140.986 21.9515 140.708 21.9548C140.131 21.9407 139.573 22.1467 139.154 22.5276C138.736 22.9085 138.491 23.4333 138.474 23.9871C138.465 24.5393 138.681 25.0729 139.075 25.4745C139.469 25.8761 140.011 26.1139 140.585 26.1374Z" fill="white"/>
<path fill-rule="evenodd" clip-rule="evenodd" d="M133.002 21.3595C132.497 21.2388 132.126 21.7161 132.004 22.1823C132.004 22.6596 132.378 23.0216 133.002 23.1396C133.496 23.1396 133.858 22.783 133.858 22.1823C133.978 21.7051 133.482 21.3595 133.002 21.3595Z" fill="#00A3D3"/>
<path d="M132.877 24.3464H133.002C134.203 24.3464 135.113 23.4221 135.113 22.1934C135.216 21.9355 135.088 21.3706 134.728 20.9454C134.52 20.6888 134.25 20.4838 133.943 20.3478C133.635 20.2118 133.298 20.1487 132.959 20.1637C131.87 20.1637 131.065 20.8659 130.797 21.9081C130.763 23.2548 131.547 24.1023 132.76 24.3245L132.877 24.3464Z" fill="white"/>
<path fill-rule="evenodd" clip-rule="evenodd" d="M125.411 20.0431C125.168 20.0341 124.931 20.1141 124.747 20.2668C124.563 20.4196 124.447 20.6337 124.421 20.8659C124.421 21.4638 124.792 21.8204 125.277 21.8204C125.893 21.8204 126.267 21.4638 126.267 20.9838C126.276 20.7502 126.193 20.5218 126.034 20.3447C125.875 20.1675 125.653 20.0549 125.411 20.0294V20.0431Z" fill="#00A3D3"/>
<path d="M125.291 23.0299C126.561 23.0299 127.522 22.1577 127.522 20.9975C127.53 20.7234 127.482 20.4505 127.381 20.1943C127.279 19.9381 127.126 19.7036 126.93 19.5043C126.734 19.305 126.499 19.1448 126.239 19.0328C125.978 18.9207 125.698 18.8591 125.413 18.8513C125.128 18.8436 124.844 18.8899 124.577 18.9876C124.311 19.0854 124.067 19.2326 123.86 19.421C123.652 19.6093 123.486 19.835 123.369 20.0853C123.253 20.3356 123.188 20.6054 123.18 20.8795C123.18 22.1055 124.088 23.0299 125.291 23.0299Z" fill="white"/>
<path fill-rule="evenodd" clip-rule="evenodd" d="M117.826 19.6865C117.712 19.6865 117.6 19.7082 117.495 19.7504C117.39 19.7926 117.295 19.8545 117.215 19.9324C117.136 20.0102 117.073 20.1025 117.031 20.204C116.989 20.3054 116.968 20.4139 116.97 20.5231C116.944 20.6423 116.948 20.7656 116.979 20.8834C117.011 21.0012 117.071 21.1105 117.153 21.2027C117.236 21.2949 117.34 21.3676 117.456 21.4153C117.573 21.4629 117.699 21.4842 117.826 21.4775C118.064 21.4686 118.292 21.3825 118.473 21.2331C118.653 21.0836 118.776 20.8798 118.821 20.6547C118.824 20.5285 118.799 20.4032 118.75 20.2862C118.701 20.1692 118.628 20.0629 118.535 19.9738C118.442 19.8847 118.331 19.8146 118.209 19.7675C118.087 19.7205 117.957 19.6976 117.826 19.7003V19.6865Z" fill="#00A3D3"/>
<path d="M117.825 22.6733C118.344 22.6664 118.845 22.4899 119.245 22.1728C119.646 21.8557 119.922 21.417 120.028 20.9289C120.062 19.4369 119.081 18.4906 117.825 18.4906C117.547 18.4877 117.271 18.5383 117.013 18.6394C116.756 18.7405 116.522 18.8902 116.325 19.0795C116.128 19.2689 115.973 19.4941 115.868 19.742C115.763 19.9899 115.711 20.2554 115.714 20.523C115.674 20.7721 115.692 21.0265 115.766 21.2683C115.84 21.5101 115.968 21.7332 116.142 21.9218C116.348 22.1583 116.606 22.3482 116.897 22.4781C117.188 22.608 117.505 22.6746 117.825 22.6733Z" fill="white"/>
<path fill-rule="evenodd" clip-rule="evenodd" d="M110.363 19.4479C110.178 19.4336 109.994 19.4724 109.832 19.5592C109.671 19.6461 109.54 19.7772 109.456 19.9358C109.372 20.0944 109.34 20.2734 109.362 20.45C109.384 20.6265 109.461 20.7927 109.581 20.9275C109.702 21.0622 109.862 21.1593 110.04 21.2065C110.219 21.2538 110.408 21.2489 110.583 21.1927C110.759 21.1364 110.913 21.0312 111.026 20.8905C111.139 20.7497 111.206 20.5798 111.219 20.4023C111.219 19.8044 110.848 19.4479 110.363 19.4479Z" fill="#00A3D3"/>
<path d="M110.24 22.4347C110.814 22.4423 111.369 22.2342 111.786 21.8547C112.203 21.4751 112.45 20.9541 112.474 20.4024C112.474 19.1764 111.567 18.2521 110.363 18.2521C109.794 18.2491 109.247 18.4602 108.838 18.8403C108.429 19.2204 108.191 19.7392 108.175 20.2857C108.159 20.8323 108.366 21.3632 108.752 21.7648C109.138 22.1665 109.672 22.4069 110.24 22.4347Z" fill="white"/>
<path fill-rule="evenodd" clip-rule="evenodd" d="M102.78 19.5659C102.158 19.5659 101.782 19.9252 101.782 20.3887C101.766 20.5665 101.806 20.7446 101.896 20.9005C101.987 21.0564 102.123 21.183 102.288 21.2643C102.453 21.3455 102.64 21.3776 102.824 21.3566C103.009 21.3356 103.182 21.2624 103.323 21.1463C103.464 21.0302 103.566 20.8764 103.616 20.7045C103.665 20.5327 103.661 20.3505 103.603 20.1811C103.544 20.0117 103.435 19.8627 103.289 19.7532C103.142 19.6436 102.965 19.5784 102.78 19.5659Z" fill="#00A3D3"/>
<path d="M102.652 22.5554C103.221 22.5601 103.77 22.35 104.18 21.9704C104.59 21.5907 104.829 21.0717 104.846 20.5245C104.863 19.9774 104.656 19.4456 104.27 19.0434C103.883 18.6411 103.349 18.4004 102.78 18.3728C101.499 18.3728 100.541 19.2449 100.541 20.4024C100.531 20.955 100.746 21.4893 101.141 21.8915C101.535 22.2937 102.077 22.5319 102.652 22.5554Z" fill="white"/>
<path fill-rule="evenodd" clip-rule="evenodd" d="M95.4455 20.2845C94.9406 20.1611 94.447 20.641 94.447 21.1073C94.4569 21.3358 94.5469 21.5545 94.7022 21.7277C94.8575 21.901 95.0692 22.0187 95.3029 22.0618C95.5611 22.0452 95.8043 21.9395 95.9878 21.7641C96.1713 21.5887 96.2827 21.3554 96.3013 21.1073C96.3013 20.8891 96.2112 20.6798 96.0507 20.5255C95.8902 20.3712 95.6725 20.2845 95.4455 20.2845Z" fill="#00A3D3"/>
<path d="M95.1632 23.2713H95.3173C95.9073 23.2608 96.4701 23.0309 96.8877 22.63C97.3052 22.229 97.545 21.6882 97.5567 21.121C97.5357 20.5823 97.3012 20.0717 96.9013 19.6938C96.5014 19.316 95.9663 19.0995 95.4057 19.0886C94.8341 19.0791 94.2818 19.2875 93.8697 19.6683C93.4575 20.0492 93.219 20.5715 93.2062 21.121C93.2137 21.6184 93.3968 22.0986 93.7254 22.4828C94.054 22.867 94.5087 23.1325 95.0149 23.2356L95.1632 23.2713Z" fill="white"/>
<path fill-rule="evenodd" clip-rule="evenodd" d="M88.6045 21.1209C88.366 21.1297 88.1375 21.2158 87.9563 21.3652C87.775 21.5145 87.6516 21.7184 87.6061 21.9437C87.6248 22.1919 87.7361 22.4251 87.9196 22.6005C88.1031 22.7759 88.3464 22.8817 88.6045 22.8982C88.8421 22.8882 89.0692 22.8016 89.2493 22.6523C89.4294 22.5031 89.552 22.2998 89.5973 22.0754C89.5992 21.9496 89.5748 21.8246 89.5256 21.708C89.4764 21.5913 89.4034 21.4854 89.3108 21.3964C89.2182 21.3074 89.108 21.2371 88.9867 21.1898C88.8654 21.1425 88.7354 21.1191 88.6045 21.1209Z" fill="#00A3D3"/>
<path d="M88.6047 24.1077C89.1224 24.1004 89.6222 23.924 90.0219 23.6075C90.4216 23.291 90.6974 22.8532 90.8042 22.3661C90.8384 20.8713 89.857 19.9251 88.6047 19.9251C88.0876 19.9314 87.5881 20.1064 87.188 20.4213C86.7879 20.7362 86.5109 21.1724 86.4023 21.6585L86.3653 21.9574C86.377 22.5247 86.6167 23.0655 87.0343 23.4664C87.4518 23.8674 88.0147 24.0972 88.6047 24.1077Z" fill="white"/>
<path fill-rule="evenodd" clip-rule="evenodd" d="M81.0164 22.6706C80.9023 22.668 80.7889 22.6874 80.6827 22.7276C80.5766 22.7678 80.4798 22.828 80.3982 22.9047C80.3166 22.9813 80.2518 23.0729 80.2075 23.174C80.1633 23.2751 80.1405 23.3837 80.1405 23.4934C80.0236 23.9734 80.5171 24.4533 81.0164 24.4533C81.2542 24.4443 81.4819 24.3581 81.6622 24.2086C81.8425 24.0592 81.9648 23.8554 82.0091 23.6305C82.0114 23.5043 81.9873 23.3789 81.9383 23.2618C81.8893 23.1447 81.8164 23.0383 81.7238 22.9488C81.6312 22.8593 81.521 22.7885 81.3994 22.7407C81.2779 22.693 81.1477 22.6691 81.0164 22.6706Z" fill="#00A3D3"/>
<path d="M81.0162 25.6629C81.5347 25.6545 82.0347 25.4766 82.434 25.1586C82.8332 24.8405 83.1079 24.4012 83.2129 23.913C83.2471 22.4182 82.2686 21.4693 81.0134 21.4693C80.7347 21.4659 80.4581 21.5162 80.1999 21.6172C79.9417 21.7181 79.7072 21.8677 79.51 22.057C79.3128 22.2464 79.1569 22.4717 79.0515 22.7197C78.9462 22.9678 78.8935 23.2337 78.8966 23.5016C78.7911 23.7759 78.9366 24.3766 79.3245 24.851C79.5249 25.1 79.781 25.3022 80.0739 25.4428C80.3668 25.5833 80.6889 25.6586 81.0162 25.6629Z" fill="white"/>
</svg>
