<svg width="32" height="32" viewBox="0 0 32 32" fill="none" xmlns="http://www.w3.org/2000/svg">
<path d="M11.7833 10.1667C11.7831 10.6087 11.6073 11.0325 11.2946 11.3449C10.9819 11.6573 10.5579 11.8327 10.1158 11.8325C9.67382 11.8323 9.24998 11.6565 8.93758 11.3438C8.62517 11.031 8.44979 10.607 8.45001 10.165C8.45023 9.72298 8.62604 9.29915 8.93876 8.98674C9.25147 8.67434 9.67548 8.49896 10.1175 8.49918C10.5595 8.4994 10.9834 8.6752 11.2958 8.98792C11.6082 9.30064 11.7836 9.72465 11.7833 10.1667ZM11.8333 13.0667H8.50001V23.5H11.8333V13.0667ZM17.1 13.0667H13.7833V23.5H17.0667V18.025C17.0667 14.975 21.0417 14.6917 21.0417 18.025V23.5H24.3333V16.8917C24.3333 11.75 18.45 11.9417 17.0667 14.4667L17.1 13.0667Z" fill="white"/>
<circle cx="16" cy="16" r="15.5" stroke="white"/>
</svg>
