<svg width="264" height="450" viewBox="0 0 264 450" fill="none" xmlns="http://www.w3.org/2000/svg">
<path d="M75.6865 398.62C75.6119 398.62 75.5375 398.61 75.4655 398.59C75.2411 398.532 75.0491 398.387 74.9315 398.187C74.8139 397.988 74.7805 397.75 74.8385 397.525C76.8159 389.84 82.2737 383.461 90.6112 379.111C90.8159 379.014 91.0503 379 91.265 379.073C91.4798 379.145 91.6581 379.298 91.7623 379.499C91.8665 379.7 91.8886 379.934 91.8238 380.151C91.759 380.368 91.6125 380.551 91.4151 380.662C83.4152 384.845 78.4034 390.668 76.5265 397.961C76.4787 398.148 76.3704 398.314 76.2185 398.433C76.0666 398.553 75.8796 398.618 75.6865 398.62Z" fill="white"/>
<path d="M90.6656 380.763C90.4595 380.763 90.2601 380.69 90.1023 380.557C89.9446 380.425 89.8387 380.241 89.8031 380.038C89.7676 379.835 89.8048 379.626 89.9081 379.448C90.0115 379.269 90.1744 379.133 90.3682 379.063C90.4265 379.041 96.5535 376.779 101.849 371.065C102.008 370.9 102.225 370.804 102.454 370.797C102.683 370.79 102.906 370.874 103.074 371.03C103.243 371.185 103.343 371.401 103.354 371.63C103.366 371.859 103.287 372.083 103.135 372.254C97.5361 378.296 91.2262 380.616 90.963 380.711C90.8674 380.744 90.7669 380.762 90.6656 380.763Z" fill="white"/>
<path d="M115.194 381.026C115.058 381.026 114.925 380.994 114.804 380.934C114.44 380.753 105.854 376.437 102.021 372.252C101.938 372.169 101.872 372.069 101.829 371.959C101.785 371.85 101.763 371.732 101.766 371.614C101.769 371.496 101.795 371.38 101.844 371.272C101.893 371.165 101.963 371.068 102.05 370.988C102.137 370.908 102.239 370.847 102.35 370.808C102.462 370.768 102.58 370.752 102.698 370.76C102.816 370.767 102.931 370.798 103.036 370.852C103.142 370.905 103.235 370.979 103.312 371.069C106.929 375.019 115.501 379.326 115.586 379.369C115.763 379.456 115.905 379.601 115.989 379.78C116.074 379.959 116.095 380.161 116.049 380.353C116.004 380.546 115.894 380.717 115.739 380.839C115.584 380.961 115.391 381.027 115.194 381.026Z" fill="white"/>
<path d="M90.6656 381.026C90.4675 381.027 90.2749 380.961 90.1194 380.838C89.9638 380.716 89.8546 380.544 89.8095 380.351C89.7645 380.158 89.7863 379.956 89.8713 379.777C89.9564 379.598 90.0996 379.453 90.2777 379.367C90.8182 379.099 103.613 372.937 114.05 378.864C114.25 378.98 114.396 379.17 114.456 379.393C114.517 379.616 114.486 379.854 114.372 380.055C114.258 380.256 114.069 380.403 113.847 380.466C113.624 380.528 113.386 380.5 113.184 380.387C103.559 374.91 91.176 380.877 91.0514 380.938C90.9311 380.996 90.7992 381.026 90.6656 381.026Z" fill="white"/>
<path d="M130.524 414.113C130.457 414.112 130.389 414.105 130.323 414.091C130.097 414.037 129.902 413.897 129.779 413.7C129.656 413.503 129.616 413.266 129.668 413.04C134.457 392.303 114.01 380.767 113.803 380.652C113.703 380.597 113.614 380.522 113.542 380.432C113.471 380.342 113.417 380.239 113.386 380.129C113.354 380.019 113.344 379.903 113.357 379.789C113.37 379.675 113.405 379.564 113.461 379.464C113.516 379.363 113.591 379.275 113.681 379.203C113.77 379.132 113.874 379.078 113.984 379.047C114.094 379.015 114.21 379.005 114.324 379.018C114.438 379.031 114.549 379.066 114.649 379.121C114.866 379.242 136.456 391.423 131.374 413.434C131.33 413.626 131.222 413.798 131.068 413.921C130.914 414.045 130.722 414.112 130.524 414.113Z" fill="white"/>
<path d="M102.405 365.449C101.356 365.449 100.567 364.808 100.567 363.96C100.567 363.113 101.356 362.472 102.405 362.472C103.41 362.472 104.153 363.098 104.153 363.96C104.153 364.822 103.402 365.449 102.405 365.449Z" fill="white"/>
<path d="M102.492 368.598C101.244 368.598 100.303 367.844 100.303 366.846C100.303 365.897 101.308 365.096 102.492 365.096C103.675 365.096 104.68 365.899 104.68 366.846C104.68 367.844 103.739 368.598 102.492 368.598Z" fill="white"/>
<path d="M102.58 372.098C101.374 372.098 100.128 371.378 100.128 370.173C100.128 368.967 101.374 368.246 102.58 368.246C104.027 368.246 105.118 369.076 105.118 370.173C105.118 371.27 104.027 372.098 102.58 372.098ZM101.903 370.225C102.124 370.286 102.351 370.327 102.58 370.346C103.062 370.346 103.342 370.165 103.384 370.098C103.35 370.183 103.03 369.998 102.58 369.998C102.318 369.982 102.061 370.07 101.863 370.241C101.868 370.235 101.874 370.231 101.881 370.228C101.888 370.225 101.895 370.224 101.903 370.225Z" fill="white"/>
<path d="M102.492 363.87C102.26 363.869 102.037 363.777 101.873 363.613C101.71 363.449 101.618 363.226 101.618 362.994V359.844C101.612 359.725 101.63 359.607 101.672 359.496C101.713 359.385 101.777 359.283 101.859 359.197C101.94 359.112 102.039 359.043 102.148 358.997C102.257 358.95 102.374 358.926 102.493 358.926C102.611 358.926 102.729 358.95 102.838 358.997C102.947 359.043 103.045 359.112 103.127 359.197C103.209 359.283 103.272 359.385 103.314 359.496C103.355 359.607 103.374 359.725 103.368 359.844V362.994C103.368 363.226 103.276 363.449 103.111 363.613C102.947 363.778 102.724 363.87 102.492 363.87Z" fill="white"/>
<path d="M107.923 362.731C107.739 362.731 107.56 362.673 107.411 362.564L102.492 359L97.5744 362.564C97.4245 362.673 97.244 362.731 97.0589 362.731C96.8738 362.73 96.6936 362.671 96.544 362.562C96.3945 362.453 96.2834 362.299 96.2266 362.123C96.1698 361.947 96.1704 361.757 96.228 361.582L98.1331 355.799L93.2097 352.237C93.0607 352.128 92.9499 351.975 92.8931 351.799C92.8363 351.624 92.8364 351.435 92.8934 351.259C92.9505 351.084 93.0615 350.931 93.2107 350.822C93.3599 350.713 93.5396 350.654 93.7242 350.654H99.7527L101.656 344.864C101.714 344.688 101.825 344.536 101.974 344.428C102.124 344.32 102.303 344.261 102.488 344.261C102.672 344.263 102.851 344.323 103.001 344.43C103.15 344.538 103.263 344.689 103.324 344.864L105.144 350.644H111.249C111.434 350.643 111.615 350.702 111.764 350.811C111.914 350.919 112.026 351.073 112.083 351.249C112.139 351.425 112.139 351.614 112.081 351.79C112.024 351.966 111.912 352.119 111.762 352.227L106.852 355.805L108.755 361.588C108.799 361.719 108.811 361.859 108.79 361.996C108.769 362.133 108.715 362.263 108.634 362.375C108.553 362.488 108.446 362.579 108.322 362.642C108.199 362.705 108.062 362.737 107.923 362.737V362.731ZM102.498 357.043C102.683 357.042 102.863 357.101 103.012 357.21L106.252 359.558L104.996 355.741C104.937 355.565 104.937 355.375 104.994 355.198C105.051 355.021 105.163 354.867 105.313 354.759L108.56 352.404H104.511C104.326 352.405 104.145 352.347 103.995 352.238C103.845 352.13 103.733 351.977 103.675 351.801L102.47 348.004L101.218 351.821C101.16 351.996 101.049 352.149 100.899 352.257C100.75 352.365 100.57 352.424 100.386 352.424H96.425L99.6744 354.779C99.824 354.888 99.9353 355.042 99.9924 355.218C100.049 355.395 100.049 355.585 99.9919 355.761L98.7359 359.578L101.975 357.23C102.122 357.113 102.304 357.047 102.492 357.043H102.498Z" fill="white"/>
<path d="M75.6866 450C33.9509 450 0 416.074 0 374.372C0 332.72 33.9609 298.828 75.6866 298.828C84.1316 298.827 92.5177 300.233 100.5 302.989C100.705 303.061 100.875 303.207 100.979 303.398C101.082 303.589 101.111 303.811 101.06 304.022C101.009 304.233 100.881 304.417 100.701 304.539C100.522 304.661 100.303 304.712 100.088 304.683C97.1138 304.237 94.1112 304.007 91.1037 303.994C57.2915 303.994 29.7811 331.481 29.7811 365.272C29.7811 399.01 57.2915 426.457 91.1037 426.457C116.745 426.457 139.863 410.295 148.622 386.244C148.697 386.039 148.845 385.87 149.038 385.768C149.231 385.667 149.455 385.641 149.666 385.696C149.877 385.751 150.06 385.883 150.179 386.066C150.298 386.248 150.345 386.469 150.31 386.684C144.342 423.369 112.959 450 75.6866 450ZM75.6866 300.586C34.9175 300.586 1.74832 333.687 1.74832 374.372C1.74832 415.107 34.9175 448.25 75.6866 448.25C109.179 448.25 137.805 426.24 146.713 394.807C135.912 415.081 114.533 428.197 91.1037 428.197C56.3269 428.197 28.0328 399.964 28.0328 365.262C28.0328 330.504 56.3269 302.24 91.1037 302.24H91.3227C86.184 301.136 80.9425 300.582 75.6866 300.586Z" fill="white"/>
<path d="M56.4998 417.353H56.4576C56.2258 417.342 56.0081 417.239 55.8521 417.067C55.6962 416.896 55.6147 416.669 55.6256 416.437C55.9049 410.739 56.2867 402.934 55.8627 401.899C55.5211 401.556 55.5713 401.075 55.915 400.734C56.2586 400.392 56.8635 400.461 57.2071 400.802C57.9527 401.543 57.9787 404.188 57.3739 416.524C57.3621 416.748 57.2648 416.958 57.1022 417.113C56.9396 417.267 56.724 417.353 56.4998 417.353Z" fill="white"/>
<path d="M74.4608 425.493C74.2329 425.493 74.0139 425.404 73.8503 425.245C73.6867 425.087 73.5914 424.87 73.5846 424.643L72.9818 402.058C72.978 401.943 72.997 401.829 73.0377 401.721C73.0783 401.614 73.1398 401.515 73.2186 401.432C73.2974 401.348 73.392 401.281 73.4969 401.234C73.6018 401.187 73.7149 401.161 73.8298 401.158C74.0589 401.163 74.2776 401.254 74.4427 401.413C74.6079 401.572 74.7075 401.787 74.722 402.016L75.3349 424.6C75.3381 424.715 75.3187 424.829 75.2777 424.937C75.2367 425.044 75.175 425.142 75.0961 425.226C75.0171 425.309 74.9225 425.376 74.8176 425.423C74.7128 425.47 74.5997 425.495 74.4849 425.499L74.4608 425.493Z" fill="white"/>
<path d="M74.2317 402.546C73.9422 402.547 73.6535 402.514 73.3716 402.448C73.1462 402.392 72.9523 402.248 72.8325 402.049C72.7127 401.85 72.6768 401.612 72.7326 401.387C72.791 401.163 72.9347 400.971 73.133 400.851C73.3312 400.732 73.5683 400.695 73.7936 400.748C73.7936 400.748 74.8446 400.969 75.0576 400.463C75.1472 400.216 75.1821 399.953 75.1599 399.692C75.1376 399.431 75.0589 399.177 74.929 398.95C74.5271 398.258 73.3897 397.318 70.277 396.768C65.012 395.779 57.0563 395.729 55.0729 397.153C54.9041 397.274 54.8358 397.374 54.8298 397.427C54.7407 397.982 54.8171 398.551 55.0494 399.063C55.2817 399.575 55.6596 400.007 56.136 400.306C56.334 400.42 56.4795 400.608 56.5412 400.828C56.603 401.048 56.5761 401.284 56.4665 401.484C56.3568 401.685 56.173 401.835 55.9543 401.902C55.7356 401.969 55.4993 401.948 55.296 401.843C54.5051 401.377 53.8718 400.685 53.4778 399.856C53.0839 399.027 52.9472 398.099 53.0855 397.192C53.1346 396.896 53.2448 396.613 53.4091 396.362C53.5734 396.111 53.7883 395.896 54.0401 395.733C56.7389 393.79 65.5325 394.096 70.5864 395.044C73.6007 395.578 75.5761 396.597 76.4321 398.07C76.6947 398.525 76.8532 399.033 76.8963 399.558C76.9393 400.082 76.8659 400.609 76.6813 401.101C76.199 402.241 75.124 402.546 74.2317 402.546Z" fill="white"/>
<path d="M75.5118 401.158C75.2998 401.157 75.0951 401.08 74.9356 400.94C74.776 400.801 74.6724 400.608 74.6438 400.398C74.6337 400.334 74.3162 398.869 63.302 398.443C57.0323 398.198 55.6658 399.084 55.4408 399.279C55.4095 399.484 55.3065 399.671 55.1501 399.807C54.9938 399.944 54.7942 400.02 54.5869 400.023C54.3795 400.026 54.1779 399.955 54.0178 399.823C53.8577 399.691 53.7496 399.507 53.7126 399.303C53.6855 399.098 53.7048 398.889 53.7692 398.692C53.8335 398.494 53.9412 398.314 54.0843 398.164C55.1152 396.973 58.1677 396.494 63.3683 396.695C73.8379 397.097 76.1428 398.375 76.38 400.165C76.4102 400.396 76.3479 400.629 76.2066 400.813C76.0654 400.998 75.8567 401.119 75.6264 401.15C75.5862 401.154 75.548 401.158 75.5118 401.158Z" fill="white"/>
<path d="M73.7594 404.485C73.6494 404.486 73.5403 404.465 73.4379 404.425C65.8017 401.411 57.5044 403.474 57.42 403.494C57.196 403.548 56.9599 403.512 56.7626 403.393C56.5654 403.274 56.423 403.082 56.3662 402.859C56.3094 402.635 56.3428 402.399 56.4591 402.2C56.5755 402.001 56.7655 401.856 56.988 401.797C57.3497 401.706 65.9404 399.587 74.081 402.801C74.2699 402.877 74.4268 403.015 74.5247 403.194C74.6225 403.372 74.6552 403.579 74.6172 403.779C74.5792 403.978 74.4728 404.159 74.3163 404.289C74.1597 404.419 73.9629 404.49 73.7594 404.491V404.485Z" fill="white"/>
<path d="M57.203 395.988H57.1527C56.9209 395.975 56.704 395.87 56.5495 395.696C56.395 395.523 56.3156 395.296 56.3288 395.064C57.012 383.389 57.856 364.232 57.223 362.53C57.1592 362.438 57.1146 362.334 57.0918 362.225C57.0691 362.116 57.0687 362.003 57.0907 361.893C57.1126 361.784 57.1565 361.68 57.2196 361.587C57.2828 361.495 57.3639 361.417 57.4582 361.357C57.6588 361.229 57.9009 361.185 58.1335 361.233C58.3662 361.28 58.5714 361.416 58.7061 361.612C59.7751 363.123 58.7724 383.282 58.0771 395.164C58.0638 395.387 57.9659 395.597 57.8034 395.75C57.641 395.903 57.4262 395.988 57.203 395.988Z" fill="white"/>
<path d="M73.4078 397.481C73.1758 397.48 72.9535 397.388 72.7896 397.224C72.6257 397.059 72.5337 396.837 72.5337 396.605C72.5337 396.587 72.5337 394.493 72.0092 382.027C71.5731 369.445 71.7439 362.689 71.7459 362.622C71.7527 362.394 71.848 362.178 72.0115 362.019C72.175 361.86 72.394 361.771 72.6221 361.77H72.6462C72.761 361.774 72.8741 361.799 72.979 361.846C73.0838 361.893 73.1784 361.96 73.2573 362.043C73.3363 362.127 73.398 362.225 73.439 362.332C73.48 362.439 73.4994 362.554 73.4962 362.669C73.4962 362.735 73.3234 369.445 73.7574 381.956C74.2759 394.513 74.282 396.523 74.282 396.601C74.282 396.833 74.1899 397.055 74.0261 397.22C73.8622 397.384 73.6398 397.476 73.4078 397.477V397.481Z" fill="white"/>
<path d="M72.9296 363.454C72.5959 363.455 72.2646 363.397 71.9509 363.283C71.8439 363.242 71.7462 363.179 71.6633 363.099C71.5805 363.02 71.5141 362.925 71.468 362.82C71.4219 362.714 71.397 362.601 71.3947 362.486C71.3924 362.371 71.4128 362.257 71.4546 362.15C71.4964 362.043 71.5589 361.945 71.6385 361.863C71.7181 361.78 71.8132 361.713 71.9185 361.667C72.0237 361.621 72.137 361.596 72.2519 361.594C72.3667 361.592 72.4809 361.612 72.5879 361.654C73.0863 361.831 73.438 361.654 73.641 361.117C73.74 360.884 73.7865 360.631 73.7775 360.377C73.7685 360.124 73.7041 359.875 73.5887 359.649C73.2752 359.004 72.2966 357.79 69.23 356.922C65.6571 355.892 59.0961 355.793 56.8072 357.141C56.5701 357.282 56.2726 357.503 56.2144 357.758C55.8989 359.165 56.8735 360.077 57.9687 360.852C58.3123 361.095 58.5374 361.254 58.6459 361.58C58.7097 361.774 58.7036 361.984 58.6287 362.174C58.5538 362.364 58.4148 362.522 58.2358 362.621C58.0567 362.719 57.8488 362.752 57.6481 362.713C57.4474 362.675 57.2665 362.567 57.1368 362.409C57.0926 362.373 57.0303 362.333 56.9599 362.283C56.12 361.68 53.8894 360.113 54.5083 357.374C54.665 356.679 55.1393 356.095 55.915 355.635C58.9493 353.84 66.1153 354.202 69.7083 355.233C73.2451 356.237 74.6256 357.77 75.1642 358.885C75.3859 359.328 75.5098 359.814 75.5275 360.309C75.5452 360.804 75.4562 361.297 75.2666 361.754C75.1593 362.078 74.9868 362.377 74.7598 362.631C74.5327 362.886 74.2559 363.091 73.9464 363.235C73.627 363.38 73.2803 363.455 72.9296 363.454Z" fill="white"/>
<path d="M74.5473 361.943C74.3395 361.943 74.1384 361.87 73.9799 361.735C73.8213 361.601 73.7155 361.415 73.6812 361.21C73.633 360.917 73.0924 360.406 71.7199 359.908C67.0398 358.23 58.4752 358.415 56.8495 359.832C56.8892 360.076 56.8373 360.326 56.7038 360.535C56.5703 360.743 56.3645 360.895 56.126 360.961C55.6357 361.073 55.1213 360.854 55.0228 360.382C54.9508 360.039 54.9754 359.683 55.0939 359.354C55.2125 359.024 55.4202 358.734 55.694 358.516C58.0632 356.428 67.6165 356.581 72.3027 358.258C74.1816 358.934 75.2245 359.83 75.4034 360.927C75.4405 361.156 75.3852 361.39 75.2495 361.579C75.1139 361.767 74.909 361.894 74.68 361.931C74.636 361.938 74.5917 361.942 74.5473 361.943Z" fill="white"/>
<path d="M72.5317 364.834C72.3478 364.833 72.1691 364.774 72.0203 364.666C71.8716 364.558 71.7602 364.406 71.7017 364.232C71.6233 364.232 70.697 363.486 66.6779 362.697C61.7747 361.736 58.9895 363.277 58.9634 363.299C58.7637 363.406 58.5306 363.43 58.3131 363.369C58.0955 363.307 57.9103 363.163 57.7961 362.968C57.6819 362.773 57.6476 362.541 57.7003 362.321C57.7531 362.102 57.8888 361.911 58.0792 361.789C58.2138 361.712 61.4089 359.882 67.0135 360.985C70.8316 361.736 73.0421 362.667 73.3716 363.671C73.4441 363.891 73.4261 364.132 73.3218 364.339C73.2174 364.546 73.0352 364.703 72.815 364.776C72.7244 364.811 72.6287 364.831 72.5317 364.834Z" fill="white"/>
<path d="M58.2439 356.08C58.129 356.08 58.0151 356.058 57.9089 356.014C57.8027 355.97 57.7063 355.905 57.6251 355.824C57.5439 355.742 57.4796 355.646 57.4357 355.54C57.3919 355.433 57.3695 355.319 57.3698 355.205V348.639C57.3698 348.407 57.4619 348.185 57.6258 348.021C57.7897 347.857 58.0121 347.765 58.2439 347.765C58.4758 347.765 58.6981 347.857 58.862 348.021C59.026 348.185 59.1181 348.407 59.1181 348.639V355.203C59.1186 355.318 59.0964 355.432 59.0527 355.538C59.009 355.645 58.9447 355.742 58.8635 355.823C58.7822 355.905 58.6857 355.969 58.5793 356.014C58.473 356.058 58.359 356.08 58.2439 356.08Z" fill="white"/>
<path d="M58.1655 348.815C58.0319 348.815 57.8999 348.785 57.7796 348.727C56.5518 348.124 54.4458 347.098 54.1746 346.919C54.0292 346.819 53.9161 346.679 53.849 346.516C53.782 346.353 53.7638 346.174 53.7968 346.001C53.8892 345.533 53.9374 345.297 57.7415 343.718C57.8475 343.673 57.9616 343.649 58.0769 343.648C58.1923 343.648 58.3066 343.67 58.4132 343.714C58.5198 343.758 58.6164 343.823 58.6974 343.906C58.7784 343.988 58.8422 344.085 58.8849 344.192C58.9291 344.298 58.952 344.412 58.9523 344.527C58.9526 344.642 58.9302 344.755 58.8866 344.861C58.8429 344.968 58.7788 345.064 58.6978 345.145C58.6168 345.227 58.5206 345.291 58.4147 345.336C57.7837 345.595 57.0924 345.896 56.5116 346.159C57.1145 346.453 57.846 346.814 58.5493 347.164C58.7571 347.267 58.9159 347.448 58.9912 347.667C59.0664 347.886 59.0521 348.126 58.9512 348.335C58.8783 348.481 58.7659 348.603 58.627 348.688C58.4881 348.773 58.3283 348.817 58.1655 348.815Z" fill="white"/>
<path d="M72.0957 346.712C71.887 346.712 71.6853 346.637 71.5266 346.502C71.3679 346.366 71.2626 346.179 71.2297 345.973C71.2297 345.936 70.6268 342.272 68.4846 340.056C67.508 339.081 65.9044 338.539 64.2747 338.577C62.8359 338.623 61.5497 339.131 60.8384 339.939C59.1665 341.834 59.3011 344.534 59.3031 344.56C59.3169 344.792 59.238 345.02 59.0839 345.193C58.9298 345.367 58.713 345.472 58.4812 345.486C58.3652 345.499 58.2478 345.487 58.1367 345.451C58.0255 345.415 57.9231 345.357 57.8359 345.279C57.7487 345.202 57.6786 345.107 57.6302 345.001C57.5818 344.894 57.5562 344.779 57.5549 344.663C57.5549 344.524 57.382 341.211 59.5222 338.782C60.5651 337.6 62.2772 336.887 64.2184 336.827C66.4088 336.739 68.4123 337.51 69.7345 338.836C72.2766 341.466 72.9337 345.537 72.9618 345.707C72.9801 345.821 72.9757 345.938 72.9488 346.05C72.9219 346.162 72.8731 346.268 72.8051 346.362C72.7371 346.455 72.6513 346.534 72.5527 346.594C72.4541 346.654 72.3445 346.694 72.2304 346.712C72.1856 346.715 72.1405 346.715 72.0957 346.712Z" fill="white"/>
<path d="M72.2704 350.829C72.0662 350.829 71.8684 350.757 71.7112 350.627C71.5539 350.497 71.4472 350.316 71.4093 350.115C71.3714 349.915 71.4048 349.707 71.5036 349.528C71.6025 349.35 71.7607 349.211 71.9508 349.137L74.099 348.301C71.6454 345.653 63.2175 344.474 59.747 345.207C59.6344 345.232 59.5179 345.234 59.4044 345.213C59.2909 345.192 59.1827 345.149 59.0863 345.086C58.9898 345.022 58.907 344.941 58.8428 344.845C58.7785 344.749 58.7341 344.641 58.7121 344.528C58.6883 344.416 58.6869 344.3 58.7079 344.187C58.729 344.074 58.7721 343.967 58.8348 343.87C58.8976 343.774 58.9786 343.691 59.0735 343.627C59.1683 343.562 59.2749 343.517 59.3873 343.493C63.4244 342.649 74.3 343.925 76.2291 348.38C76.2757 348.488 76.3001 348.604 76.3008 348.722C76.3015 348.839 76.2784 348.956 76.233 349.064C76.1876 349.173 76.1209 349.271 76.0366 349.353C75.9524 349.436 75.8525 349.5 75.7428 349.543L72.5878 350.768C72.4866 350.808 72.379 350.828 72.2704 350.829Z" fill="white"/>
<path d="M71.8325 357.656C71.7174 357.654 71.6037 357.63 71.4979 357.585C71.3921 357.54 71.2963 357.474 71.2158 357.392C71.1354 357.31 71.072 357.213 71.0292 357.106C70.9864 356.999 70.965 356.885 70.9664 356.77L71.0548 349.155C71.0548 348.675 71.4205 348.329 71.9369 348.289C72.052 348.29 72.1657 348.314 72.2715 348.36C72.3773 348.405 72.4731 348.471 72.5536 348.553C72.634 348.635 72.6974 348.732 72.7402 348.839C72.783 348.946 72.8044 349.06 72.803 349.175L72.7146 356.79C72.7139 356.905 72.6904 357.018 72.6456 357.124C72.6008 357.23 72.5355 357.326 72.4535 357.406C72.3716 357.487 72.2745 357.55 72.1679 357.593C72.0613 357.636 71.9473 357.657 71.8325 357.656Z" fill="white"/>
<path d="M72.7126 350.302C72.5665 350.302 72.4229 350.265 72.2948 350.194C72.1667 350.124 72.0582 350.023 71.9791 349.9C71.9791 349.9 70.8498 348.444 66.4449 347.749C61.813 347.096 58.658 348.54 58.6279 348.552C58.4194 348.641 58.1845 348.646 57.9725 348.566C57.7606 348.485 57.5881 348.326 57.4913 348.121C57.3945 347.916 57.381 347.681 57.4535 347.466C57.5261 347.252 57.679 347.073 57.8803 346.969C58.027 346.903 61.4975 345.289 66.7021 346.019C71.943 346.845 73.3074 348.733 73.4461 348.944C73.5329 349.076 73.5823 349.229 73.589 349.387C73.5958 349.545 73.5596 349.702 73.4844 349.84C73.4091 349.979 73.2976 350.095 73.1617 350.176C73.0258 350.257 72.8706 350.299 72.7126 350.298V350.302Z" fill="white"/>
<path d="M60.5327 355.904H60.4966C60.2808 355.896 60.0757 355.808 59.9219 355.657C59.8409 355.693 59.7548 355.716 59.6667 355.725C59.4361 355.75 59.2048 355.684 59.023 355.54C58.8413 355.396 58.7238 355.186 58.696 354.955C58.27 351.198 58.3685 348.928 58.9934 348.237C59.2221 348.02 59.516 347.885 59.8294 347.853C59.9833 347.854 60.1354 347.887 60.2764 347.949C60.4173 348.01 60.5442 348.1 60.6493 348.213C61.4752 349.075 61.5174 352.416 61.4069 355.066C61.3975 355.291 61.3014 355.504 61.1384 355.661C60.9755 355.817 60.7584 355.904 60.5327 355.904Z" fill="white"/>
<path d="M64.6483 355.729C64.6155 355.732 64.5825 355.732 64.5498 355.729C64.4353 355.716 64.3246 355.681 64.2238 355.625C64.1229 355.57 64.0341 355.495 63.9622 355.405C63.8904 355.315 63.837 355.212 63.805 355.101C63.7731 354.991 63.7633 354.875 63.7761 354.761C64.0595 352.321 63.4968 349.702 63.0145 348.934C62.7633 349.669 62.4619 352.279 62.4579 354.855C62.4579 355.087 62.3658 355.309 62.2018 355.473C62.0379 355.637 61.8156 355.729 61.5838 355.729C61.3519 355.729 61.1296 355.637 60.9656 355.473C60.8017 355.309 60.7096 355.087 60.7096 354.855C60.7096 350.234 61.2984 347.634 62.4639 347.134C62.7137 347.041 62.9835 347.016 63.246 347.062C63.5085 347.107 63.7545 347.22 63.959 347.391C65.3877 348.55 65.7856 352.599 65.5184 354.953C65.4937 355.167 65.3915 355.364 65.231 355.507C65.0706 355.65 64.8632 355.729 64.6483 355.729Z" fill="white"/>
<path d="M69.2963 356.515C69.2287 356.516 69.1612 356.508 69.0954 356.492C68.9836 356.467 68.8779 356.42 68.7843 356.354C68.6906 356.288 68.611 356.205 68.5497 356.108C68.4885 356.011 68.447 355.903 68.4275 355.79C68.4081 355.677 68.411 355.561 68.4363 355.45C68.4363 355.438 68.6613 354.389 68.5046 352.565C68.4021 350.371 67.9701 349.621 67.8294 349.527C67.2607 349.842 66.8809 352.279 67.0959 354.951C67.1132 355.183 67.0384 355.411 66.8879 355.588C66.7373 355.764 66.5233 355.874 66.2921 355.894C66.177 355.905 66.0607 355.894 65.9503 355.859C65.8398 355.824 65.7375 355.768 65.6494 355.693C65.5614 355.618 65.4894 355.526 65.4379 355.422C65.3864 355.319 65.3564 355.206 65.3497 355.09C65.205 353.246 65.0724 348.862 67.0075 348.006C67.2653 347.859 67.5569 347.782 67.8535 347.782C68.1502 347.782 68.4417 347.859 68.6995 348.006C69.0432 348.207 70.0861 348.81 70.2509 352.448C70.4357 354.536 70.1564 355.781 70.1444 355.833C70.1004 356.026 69.9928 356.198 69.8389 356.322C69.6849 356.445 69.4938 356.513 69.2963 356.515Z" fill="white"/>
<path d="M71.3923 357.043C71.1522 357.009 70.9266 356.908 70.7412 356.752C70.7075 356.76 70.6733 356.767 70.6387 356.772C70.5248 356.788 70.4089 356.781 70.2975 356.753C70.1861 356.724 70.0815 356.673 69.9896 356.604C69.8978 356.535 69.8205 356.448 69.7622 356.349C69.7039 356.25 69.6658 356.14 69.65 356.026C69.3024 353.541 69.0974 350.389 70.1062 349.479C70.2539 349.357 70.4284 349.272 70.6154 349.231C70.8023 349.19 70.9963 349.195 71.1813 349.243C71.7058 349.444 72.3508 349.702 72.2664 356.179C72.2633 356.409 72.1699 356.628 72.0063 356.79C71.8428 356.952 71.6222 357.042 71.3923 357.043Z" fill="white"/>
<path d="M67.0114 338.661C66.8592 338.662 66.7096 338.622 66.5774 338.547C65.8339 338.121 65.3415 337.323 65.014 336.319C64.7665 336.959 64.4405 337.567 64.0434 338.127C63.9052 338.311 63.7002 338.433 63.4728 338.467C63.2454 338.501 63.0137 338.444 62.8277 338.309C62.6418 338.173 62.5164 337.97 62.4788 337.744C62.4412 337.517 62.4944 337.284 62.6267 337.096C63.8907 335.36 64.377 332.22 64.2986 330.036C64.2888 329.805 64.371 329.579 64.5273 329.408C64.6836 329.237 64.9012 329.135 65.1326 329.124C65.2494 329.108 65.3684 329.117 65.4811 329.152C65.5939 329.187 65.6976 329.246 65.7848 329.325C65.8721 329.405 65.9408 329.502 65.9861 329.611C66.0314 329.72 66.0522 329.838 66.0469 329.956C66.0469 329.976 66.0469 329.998 66.0469 330.018L66.071 330.713C66.1192 332.25 66.2418 336.339 67.4435 337.018C67.6108 337.114 67.7417 337.263 67.8158 337.441C67.8899 337.619 67.9032 337.816 67.8535 338.003C67.8038 338.189 67.6939 338.354 67.5409 338.472C67.3879 338.589 67.2004 338.653 67.0075 338.653L67.0114 338.661Z" fill="white"/>
<path d="M73.9423 300.242C71.4103 300.242 66.7724 297.122 64.9819 295.567C63.3079 294.113 62.6769 293.01 62.9984 292.099C63.1572 291.643 63.6174 291.095 64.8794 291.045C69.4048 290.844 73.3756 295.867 74.4628 297.4C75.4414 295.591 78.2628 291.091 83.0314 291.485C83.4996 291.527 84.9203 291.653 85.1273 292.789C85.3685 294.103 83.9055 295.585 75.4957 299.648L75.2947 299.752C75.2425 299.79 75.1862 299.831 75.1279 299.869C75.0507 299.94 74.9642 300 74.8707 300.048C74.5814 300.186 74.263 300.253 73.9423 300.242ZM64.7709 292.809C65.2009 293.53 66.8929 295.091 69.5214 296.664C70.6023 297.343 71.7564 297.898 72.9617 298.318C71.9268 296.883 68.5829 292.726 64.9417 292.797C64.8754 292.795 64.8231 292.799 64.7709 292.805V292.809ZM82.4546 293.21C79.7599 293.21 77.7684 295.465 76.6652 297.118C80.9977 294.948 82.5993 293.829 83.154 293.263C83.0736 293.251 82.9811 293.239 82.8706 293.229C82.7601 293.219 82.6013 293.21 82.4627 293.21H82.4546Z" fill="white"/>
<path d="M74.6337 299.796C74.4016 299.794 74.1799 299.7 74.0172 299.535C73.8544 299.37 73.7639 299.146 73.7655 298.914L75.6022 0.86795C75.6033 0.637387 75.6956 0.416629 75.8591 0.253971C76.0225 0.0913136 76.2437 -2.44816e-06 76.4744 0C76.5891 0.000788809 76.7027 0.0241768 76.8084 0.0688286C76.9142 0.11348 77.0101 0.178521 77.0907 0.260238C77.1713 0.341955 77.2351 0.438746 77.2783 0.545086C77.3215 0.651426 77.3433 0.765232 77.3425 0.880005L75.4998 298.926C75.4987 299.156 75.4072 299.376 75.2451 299.539C75.0831 299.702 74.8634 299.794 74.6337 299.796Z" fill="white"/>
<g opacity="0.4">
<path d="M258.477 257.686H217.861C217.656 257.686 217.46 257.604 217.316 257.46C217.171 257.315 217.09 257.12 217.09 256.915V197.662C217.09 197.458 217.171 197.262 217.316 197.117C217.46 196.972 217.656 196.891 217.861 196.89H258.477C258.578 196.89 258.679 196.91 258.772 196.949C258.866 196.988 258.951 197.045 259.022 197.117C259.094 197.188 259.151 197.273 259.189 197.367C259.228 197.461 259.248 197.561 259.247 197.662V256.915C259.247 257.12 259.166 257.315 259.022 257.46C258.877 257.604 258.681 257.686 258.477 257.686ZM218.624 256.143H257.698V198.433H218.633L218.624 256.143Z" fill="white"/>
<path d="M245.66 257.686H230.757C230.553 257.686 230.357 257.604 230.212 257.46C230.068 257.315 229.987 257.12 229.987 256.915V209.852C229.989 207.683 230.853 205.604 232.387 204.071C233.921 202.538 236.001 201.676 238.17 201.674C242.725 201.674 246.431 205.343 246.431 209.852V256.915C246.431 257.12 246.349 257.315 246.205 257.46C246.061 257.604 245.865 257.686 245.66 257.686ZM231.527 256.143H244.89V209.852C244.89 206.193 241.879 203.218 238.17 203.218C236.41 203.219 234.722 203.918 233.476 205.161C232.231 206.405 231.53 208.092 231.527 209.852V256.143Z" fill="white"/>
<path d="M255.696 257.686H249.523C249.319 257.686 249.123 257.604 248.978 257.46C248.834 257.316 248.753 257.12 248.753 256.915V209.777C248.753 209.271 248.853 208.769 249.046 208.301C249.24 207.833 249.524 207.408 249.883 207.05C250.241 206.692 250.666 206.408 251.134 206.214C251.602 206.02 252.104 205.92 252.611 205.92C253.117 205.92 253.619 206.02 254.087 206.214C254.555 206.408 254.98 206.692 255.338 207.05C255.697 207.408 255.981 207.833 256.175 208.301C256.368 208.769 256.468 209.271 256.468 209.777V256.919C256.467 257.123 256.385 257.318 256.241 257.462C256.096 257.606 255.9 257.686 255.696 257.686ZM250.292 256.143H254.926V209.777C254.926 209.163 254.681 208.574 254.247 208.139C253.812 207.705 253.223 207.461 252.609 207.461C251.994 207.461 251.405 207.705 250.971 208.139C250.536 208.574 250.292 209.163 250.292 209.777V256.143Z" fill="white"/>
<path d="M226.896 257.686H220.796C220.591 257.686 220.395 257.604 220.251 257.46C220.106 257.316 220.025 257.12 220.025 256.915V209.777C220.026 208.755 220.434 207.774 221.157 207.051C221.881 206.328 222.862 205.921 223.885 205.92C224.898 205.931 225.865 206.343 226.574 207.066C227.284 207.789 227.677 208.765 227.668 209.777V256.919C227.667 257.123 227.585 257.318 227.44 257.461C227.295 257.605 227.1 257.686 226.896 257.686ZM221.566 256.143H226.125V209.777C226.133 209.478 226.081 209.179 225.972 208.9C225.863 208.621 225.699 208.366 225.491 208.15C225.282 207.935 225.033 207.763 224.757 207.646C224.481 207.528 224.185 207.466 223.885 207.465C223.271 207.465 222.682 207.709 222.248 208.142C221.813 208.576 221.568 209.164 221.566 209.777V256.143Z" fill="white"/>
<path d="M258.863 198.433H217.554C216.979 198.444 216.408 198.341 215.874 198.129C215.339 197.918 214.852 197.601 214.442 197.199C214.031 196.797 213.705 196.316 213.482 195.787C213.26 195.257 213.145 194.688 213.145 194.113C213.145 193.538 213.26 192.969 213.482 192.439C213.705 191.909 214.031 191.429 214.442 191.027C214.852 190.624 215.339 190.308 215.874 190.096C216.408 189.884 216.979 189.781 217.554 189.793H258.863C259.438 189.781 260.009 189.884 260.544 190.096C261.078 190.308 261.565 190.624 261.975 191.027C262.386 191.429 262.712 191.909 262.935 192.439C263.158 192.969 263.272 193.538 263.272 194.113C263.272 194.688 263.158 195.257 262.935 195.787C262.712 196.316 262.386 196.797 261.975 197.199C261.565 197.601 261.078 197.918 260.544 198.129C260.009 198.341 259.438 198.444 258.863 198.433ZM217.554 191.335C217.183 191.326 216.815 191.391 216.469 191.526C216.124 191.661 215.809 191.865 215.544 192.123C215.278 192.382 215.067 192.692 214.923 193.033C214.779 193.375 214.705 193.742 214.705 194.113C214.705 194.484 214.779 194.851 214.923 195.192C215.067 195.534 215.278 195.843 215.544 196.102C215.809 196.361 216.124 196.564 216.469 196.699C216.815 196.835 217.183 196.9 217.554 196.89H258.863C259.234 196.9 259.603 196.835 259.948 196.699C260.293 196.564 260.608 196.361 260.873 196.102C261.139 195.843 261.35 195.534 261.494 195.192C261.638 194.851 261.712 194.484 261.712 194.113C261.712 193.742 261.638 193.375 261.494 193.033C261.35 192.692 261.139 192.382 260.873 192.123C260.608 191.865 260.293 191.661 259.948 191.526C259.603 191.391 259.234 191.326 258.863 191.335H217.554Z" fill="white"/>
<path d="M258.863 264.785H217.554C216.408 264.785 215.309 264.33 214.498 263.52C213.688 262.709 213.232 261.61 213.232 260.464C213.232 259.318 213.688 258.219 214.498 257.409C215.309 256.598 216.408 256.143 217.554 256.143H258.863C260.009 256.143 261.109 256.598 261.919 257.409C262.729 258.219 263.185 259.318 263.185 260.464C263.185 261.61 262.729 262.709 261.919 263.52C261.109 264.33 260.009 264.785 258.863 264.785ZM217.554 257.686C217.183 257.676 216.815 257.741 216.469 257.877C216.124 258.012 215.809 258.215 215.544 258.474C215.278 258.733 215.067 259.042 214.923 259.384C214.779 259.725 214.705 260.092 214.705 260.463C214.705 260.834 214.779 261.201 214.923 261.543C215.067 261.884 215.278 262.194 215.544 262.453C215.809 262.711 216.124 262.915 216.469 263.05C216.815 263.185 217.183 263.25 217.554 263.241H258.863C259.234 263.25 259.603 263.185 259.948 263.05C260.293 262.915 260.608 262.711 260.873 262.453C261.139 262.194 261.35 261.884 261.494 261.543C261.638 261.201 261.712 260.834 261.712 260.463C261.712 260.092 261.638 259.725 261.494 259.384C261.35 259.042 261.139 258.733 260.873 258.474C260.608 258.215 260.293 258.012 259.948 257.877C259.603 257.741 259.234 257.676 258.863 257.686H217.554Z" fill="white"/>
<path d="M238.17 285C224.418 285 213.231 273.787 213.231 260.002V194.346C213.23 194.244 213.25 194.144 213.289 194.05C213.327 193.957 213.384 193.871 213.456 193.8C213.527 193.728 213.612 193.671 213.706 193.632C213.8 193.593 213.9 193.573 214.001 193.573H262.414C262.619 193.574 262.815 193.656 262.959 193.8C263.104 193.945 263.185 194.141 263.185 194.346V260.002C263.185 273.787 251.962 285 238.17 285ZM214.772 195.116V260.002C214.772 272.929 225.268 283.456 238.17 283.456C251.112 283.456 261.644 272.935 261.644 260.002V195.116H214.772Z" fill="white"/>
<path d="M214.773 193.109C214.611 193.109 214.454 193.057 214.323 192.962C214.192 192.867 214.094 192.732 214.044 192.578C213.781 191.801 207.878 173.452 227.31 163.181C227.4 163.13 227.499 163.098 227.601 163.086C227.704 163.074 227.808 163.083 227.907 163.112C228.006 163.141 228.098 163.189 228.178 163.254C228.258 163.32 228.324 163.4 228.372 163.491C228.42 163.583 228.449 163.683 228.458 163.785C228.467 163.888 228.455 163.992 228.423 164.09C228.391 164.188 228.34 164.278 228.272 164.356C228.205 164.434 228.122 164.498 228.029 164.543C209.745 174.203 215.26 191.36 215.505 192.084C215.57 192.278 215.556 192.49 215.465 192.673C215.374 192.857 215.214 192.996 215.02 193.062C214.941 193.091 214.857 193.107 214.773 193.109Z" fill="white"/>
<path d="M227.36 164.718C227.178 164.718 227.002 164.654 226.863 164.536C226.723 164.419 226.63 164.256 226.6 164.077C226.569 163.897 226.603 163.713 226.695 163.556C226.787 163.399 226.931 163.279 227.103 163.218C227.156 163.199 232.468 161.281 236.983 156.328C237.051 156.253 237.134 156.192 237.225 156.149C237.317 156.107 237.416 156.082 237.517 156.077C237.619 156.073 237.72 156.088 237.815 156.123C237.91 156.157 237.998 156.21 238.072 156.278C238.147 156.346 238.208 156.429 238.251 156.52C238.294 156.612 238.318 156.711 238.323 156.813C238.327 156.914 238.312 157.015 238.277 157.11C238.243 157.205 238.19 157.293 238.122 157.367C233.34 162.62 227.849 164.593 227.617 164.674C227.534 164.702 227.447 164.717 227.36 164.718Z" fill="white"/>
<path d="M248.517 164.872C248.4 164.873 248.284 164.846 248.179 164.793C247.864 164.639 240.44 160.984 237.135 157.367C237.067 157.293 237.014 157.205 236.98 157.11C236.945 157.015 236.93 156.914 236.934 156.813C236.939 156.711 236.964 156.612 237.006 156.52C237.049 156.429 237.11 156.346 237.185 156.278C237.26 156.21 237.347 156.157 237.442 156.123C237.538 156.088 237.639 156.073 237.74 156.077C237.841 156.082 237.94 156.107 238.032 156.149C238.124 156.192 238.206 156.253 238.274 156.328C241.384 159.728 248.783 163.371 248.857 163.411C249.014 163.488 249.139 163.616 249.214 163.773C249.288 163.931 249.307 164.109 249.268 164.278C249.228 164.448 249.133 164.599 248.997 164.708C248.86 164.816 248.691 164.876 248.517 164.876V164.872Z" fill="white"/>
<path d="M227.36 164.949C227.186 164.948 227.017 164.889 226.881 164.781C226.745 164.673 226.649 164.522 226.61 164.353C226.57 164.184 226.588 164.006 226.662 163.849C226.736 163.691 226.861 163.564 227.016 163.486C227.484 163.256 238.529 157.886 247.511 163.047C247.599 163.097 247.676 163.164 247.738 163.245C247.8 163.325 247.845 163.416 247.871 163.514C247.898 163.612 247.905 163.714 247.892 163.814C247.879 163.915 247.846 164.012 247.795 164.099C247.745 164.187 247.678 164.264 247.597 164.326C247.517 164.388 247.426 164.433 247.328 164.46C247.13 164.513 246.92 164.486 246.742 164.384C238.471 159.631 227.808 164.816 227.703 164.869C227.596 164.921 227.479 164.948 227.36 164.949Z" fill="white"/>
<path d="M261.568 192.185C261.508 192.185 261.449 192.178 261.391 192.164C261.191 192.118 261.018 191.996 260.909 191.823C260.801 191.65 260.765 191.441 260.81 191.241C264.869 173.546 248.041 164.993 247.323 164.639C247.14 164.548 247 164.388 246.934 164.194C246.868 164 246.882 163.788 246.973 163.604C247.063 163.421 247.223 163.281 247.417 163.215C247.611 163.149 247.823 163.163 248.007 163.254C248.195 163.346 266.649 172.693 262.313 191.588C262.274 191.757 262.18 191.908 262.044 192.016C261.909 192.124 261.741 192.184 261.568 192.185Z" fill="white"/>
<path d="M237.479 151.525C236.593 151.525 235.934 150.962 235.934 150.213C235.934 149.505 236.597 148.973 237.479 148.973C238.361 148.973 239.02 149.505 239.02 150.213C239.016 150.962 238.354 151.525 237.479 151.525Z" fill="white"/>
<path d="M237.551 154.302C236.529 154.302 235.701 153.609 235.701 152.759C235.701 151.863 236.48 151.215 237.551 151.215C238.651 151.215 239.48 151.879 239.48 152.759C239.48 153.595 238.598 154.302 237.551 154.302Z" fill="white"/>
<path d="M237.706 157.235C236.466 157.235 235.545 156.505 235.545 155.538C235.545 154.617 236.533 153.84 237.706 153.84C238.836 153.84 239.79 154.617 239.79 155.538C239.79 156.489 238.876 157.235 237.706 157.235Z" fill="white"/>
<path d="M237.552 150.137C237.347 150.136 237.151 150.055 237.007 149.91C236.862 149.765 236.781 149.569 236.781 149.365V146.733C236.781 146.529 236.862 146.333 237.007 146.188C237.151 146.044 237.347 145.963 237.552 145.963C237.756 145.963 237.952 146.044 238.096 146.188C238.241 146.333 238.322 146.529 238.322 146.733V149.358C238.323 149.459 238.304 149.561 238.266 149.655C238.228 149.75 238.171 149.836 238.1 149.908C238.028 149.981 237.942 150.038 237.848 150.077C237.754 150.117 237.653 150.137 237.552 150.137Z" fill="white"/>
<path d="M237.093 148.196C234.833 148.196 230.821 145.472 229.275 144.11C227.858 142.871 227.339 141.929 227.622 141.151C227.767 140.756 228.173 140.282 229.276 140.266C233.208 140.089 236.593 144.447 237.55 145.789C238.395 144.195 240.942 140.299 244.954 140.654C245.347 140.682 246.58 140.77 246.778 141.743C247.029 142.982 245.361 144.222 239.349 147.305L238.225 147.889C238.138 147.942 238.048 147.986 237.954 148.022C237.685 148.148 237.389 148.208 237.093 148.196ZM229.211 141.808C229.659 142.495 231.308 143.951 233.57 145.263C234.386 145.756 235.25 146.166 236.149 146.485C235.155 145.145 232.264 141.644 229.319 141.801L229.211 141.808ZM244.468 142.162C242.194 142.162 240.502 144.034 239.546 145.458C241.264 144.573 244.079 143.057 244.998 142.194L244.831 142.178C244.709 142.177 244.587 142.171 244.468 142.171V142.162Z" fill="white"/>
<path d="M237.706 147.9C237.502 147.9 237.308 147.82 237.163 147.677C237.019 147.534 236.937 147.34 236.935 147.137L235.314 1.78097C235.313 1.67957 235.332 1.57894 235.37 1.48481C235.408 1.39069 235.463 1.30491 235.534 1.23239C235.605 1.15987 235.69 1.10202 235.783 1.06215C235.876 1.02227 235.976 1.00116 236.078 1C236.281 0.999987 236.475 1.07993 236.62 1.22249C236.764 1.36505 236.846 1.55872 236.848 1.76149L238.469 147.119C238.471 147.324 238.392 147.521 238.25 147.667C238.107 147.813 237.912 147.897 237.707 147.9H237.706Z" fill="white"/>
<path d="M243.42 177.448C243.257 177.448 243.098 177.397 242.966 177.301L241.195 176.015L239.489 177.294C239.358 177.392 239.199 177.445 239.035 177.447C238.871 177.449 238.711 177.399 238.578 177.303C238.445 177.208 238.345 177.073 238.294 176.917C238.242 176.762 238.242 176.594 238.292 176.438L238.968 174.349L237.183 173.058C237.05 172.96 236.951 172.823 236.901 172.666C236.851 172.508 236.852 172.339 236.905 172.183C236.962 172.029 237.065 171.896 237.199 171.801C237.334 171.706 237.493 171.654 237.658 171.651L239.783 171.713L240.453 169.641C240.656 169.004 241.71 169.002 241.921 169.641L242.592 171.715L244.718 171.653H244.739C244.901 171.654 245.058 171.705 245.189 171.8C245.32 171.895 245.418 172.028 245.469 172.181C245.52 172.335 245.522 172.5 245.474 172.655C245.426 172.809 245.33 172.944 245.201 173.042L243.478 174.333L244.158 176.431C244.208 176.586 244.208 176.753 244.158 176.908C244.108 177.063 244.01 177.198 243.878 177.294C243.746 177.393 243.585 177.447 243.42 177.448ZM241.179 174.285C241.342 174.284 241.501 174.336 241.632 174.432L241.958 174.667L241.836 174.292C241.787 174.139 241.786 173.974 241.835 173.821C241.883 173.667 241.978 173.533 242.107 173.437L242.323 173.275H242.05C241.886 173.271 241.727 173.218 241.593 173.124C241.459 173.029 241.355 172.897 241.296 172.744L241.179 172.39L241.066 172.744C241.015 172.899 240.917 173.033 240.785 173.129C240.654 173.224 240.495 173.276 240.332 173.275H240.313H240.114L240.323 173.428C240.455 173.524 240.554 173.659 240.604 173.814C240.655 173.969 240.655 174.137 240.605 174.292L240.504 174.6L240.718 174.439C240.851 174.339 241.013 174.285 241.179 174.285Z" fill="white"/>
<path d="M238.48 186.476C237.57 186.494 236.662 186.379 235.786 186.134C235.74 186.032 235.674 185.94 235.591 185.865C235.509 185.789 235.412 185.73 235.307 185.693C235.202 185.655 235.09 185.639 234.978 185.646C234.867 185.653 234.757 185.682 234.657 185.732C232.639 184.983 230.9 183.63 229.677 181.858C228.455 180.086 227.808 177.98 227.826 175.827C227.826 170.16 232.42 165.425 238.069 165.258C238.239 165.254 238.407 165.306 238.545 165.406C238.683 165.507 238.784 165.65 238.832 165.814C238.879 165.978 238.872 166.153 238.809 166.312C238.747 166.471 238.633 166.605 238.487 166.693C237.059 167.537 235.949 168.827 235.326 170.364C234.704 171.901 234.604 173.6 235.042 175.199C235.479 176.799 236.431 178.21 237.749 179.216C239.068 180.222 240.681 180.766 242.339 180.766C244.045 180.745 245.699 180.175 247.056 179.141C247.193 179.04 247.36 178.988 247.529 178.992C247.699 178.996 247.863 179.056 247.995 179.163C248.128 179.269 248.221 179.416 248.262 179.582C248.302 179.747 248.286 179.92 248.218 180.076C247.386 181.969 246.024 183.58 244.296 184.716C242.568 185.851 240.548 186.463 238.48 186.476ZM236 184.623C236.075 184.623 236.149 184.634 236.221 184.655C236.954 184.856 237.712 184.949 238.471 184.931C239.768 184.927 241.05 184.645 242.229 184.105C243.408 183.564 244.458 182.777 245.308 181.797C243.423 182.447 241.377 182.461 239.484 181.837C237.59 181.213 235.954 179.985 234.826 178.341C233.698 176.697 233.141 174.729 233.24 172.738C233.338 170.747 234.088 168.844 235.373 167.32C233.624 167.954 232.11 169.109 231.037 170.628C229.963 172.148 229.38 173.96 229.367 175.82C229.352 177.658 229.904 179.456 230.947 180.97C231.99 182.484 233.474 183.639 235.198 184.28C235.212 184.366 235.248 184.448 235.303 184.517C235.357 184.586 235.429 184.64 235.51 184.673C235.591 184.707 235.679 184.719 235.767 184.709C235.854 184.699 235.937 184.667 236.009 184.616L236 184.623Z" fill="white"/>
</g>
</svg>
